<svg xmlns="http://www.w3.org/2000/svg" xmlns:xlink="http://www.w3.org/1999/xlink" id="svg" width="400" height="400" viewBox="0, 0, 400,400"><g id="svgg"><path id="path0" d="M274.400 25.587 C 274.400 25.801,274.700 25.860,275.066 25.719 C 275.513 25.548,275.636 25.617,275.442 25.932 C 275.283 26.189,274.893 26.400,274.576 26.400 C 274.259 26.400,274.000 26.616,274.000 26.880 C 274.000 27.244,273.880 27.240,273.503 26.863 C 273.108 26.468,273.128 26.286,273.603 25.971 C 274.030 25.688,273.858 25.651,273.000 25.839 C 272.340 25.985,271.643 26.246,271.451 26.420 C 271.259 26.595,270.854 26.642,270.551 26.526 C 270.248 26.410,270.000 26.499,270.000 26.724 C 270.000 26.949,270.216 27.205,270.480 27.293 C 270.775 27.392,270.690 27.557,270.259 27.722 C 269.840 27.883,269.657 27.832,269.803 27.595 C 270.155 27.026,269.328 27.109,267.760 27.800 C 267.012 28.130,265.756 28.685,264.970 29.033 C 264.040 29.445,263.615 29.863,263.755 30.228 C 263.874 30.537,263.843 30.753,263.686 30.707 C 263.269 30.586,260.000 32.844,260.000 33.253 C 260.000 33.733,260.553 33.687,261.075 33.165 C 261.388 32.852,261.585 32.852,261.778 33.165 C 261.926 33.404,261.947 33.623,261.824 33.650 C 261.701 33.678,261.465 33.725,261.300 33.756 C 261.135 33.787,260.775 33.955,260.500 34.130 C 260.225 34.304,260.000 34.307,260.000 34.135 C 260.000 33.963,259.720 34.222,259.377 34.712 C 259.034 35.201,258.865 35.781,259.000 36.001 C 259.136 36.220,258.967 36.400,258.624 36.400 C 258.281 36.400,258.000 36.681,258.000 37.024 C 258.000 37.367,257.819 37.535,257.597 37.398 C 257.097 37.089,255.790 38.332,256.207 38.719 C 256.373 38.874,256.590 38.775,256.688 38.500 C 256.967 37.720,257.600 37.913,257.600 38.777 C 257.600 39.339,257.378 39.511,256.800 39.400 C 255.889 39.225,255.768 39.606,256.500 40.344 C 256.901 40.748,256.857 40.793,256.276 40.572 C 255.745 40.369,255.493 40.522,255.329 41.148 C 255.207 41.617,254.948 42.000,254.753 42.000 C 254.559 42.000,254.413 42.675,254.428 43.500 C 254.451 44.703,254.524 44.842,254.800 44.200 C 255.128 43.437,255.145 43.441,255.172 44.300 C 255.191 44.919,254.969 45.200,254.461 45.200 C 253.773 45.200,253.736 45.535,253.914 50.173 C 254.136 55.923,253.963 56.853,252.859 55.854 C 252.461 55.493,252.000 55.334,251.834 55.499 C 251.669 55.665,251.593 55.552,251.667 55.250 C 251.740 54.947,251.575 54.617,251.300 54.517 C 251.024 54.415,250.800 54.639,250.800 55.016 C 250.800 55.586,250.699 55.614,250.181 55.184 C 249.689 54.776,249.668 54.605,250.079 54.351 C 250.476 54.106,250.410 53.891,249.798 53.429 C 248.821 52.690,248.306 52.654,247.680 53.280 C 247.307 53.653,247.200 53.653,247.200 53.280 C 247.200 53.016,247.380 52.800,247.600 52.800 C 247.820 52.800,248.000 52.620,248.000 52.400 C 248.000 52.180,247.571 52.000,247.046 52.000 C 245.452 52.000,243.763 51.082,243.919 50.300 C 244.016 49.813,243.806 49.600,243.229 49.600 C 242.773 49.600,242.400 49.464,242.400 49.298 C 242.400 48.718,239.446 48.030,238.900 48.483 C 238.510 48.807,238.415 48.692,238.495 47.992 C 238.582 47.233,238.124 46.820,235.800 45.559 C 232.870 43.969,231.094 43.508,231.970 44.564 C 232.265 44.920,232.294 45.219,232.047 45.371 C 231.474 45.725,231.108 44.920,231.410 43.968 C 231.608 43.345,231.467 43.090,230.836 42.925 C 230.376 42.805,230.000 42.535,230.000 42.325 C 230.000 42.115,229.595 41.976,229.100 42.016 C 227.514 42.144,227.269 42.021,227.484 41.200 C 227.718 40.305,226.615 40.033,226.265 40.900 C 226.104 41.300,226.057 41.300,226.032 40.900 C 226.014 40.625,225.562 40.400,225.027 40.400 C 224.397 40.400,223.962 40.111,223.793 39.579 C 223.583 38.917,223.421 38.850,222.957 39.236 C 222.490 39.623,222.428 39.591,222.630 39.067 C 222.920 38.310,221.801 37.029,221.184 37.410 C 220.892 37.590,220.907 37.847,221.230 38.236 C 221.601 38.683,221.559 38.800,221.025 38.800 C 220.655 38.800,220.451 38.640,220.572 38.445 C 220.693 38.250,220.525 37.870,220.200 37.600 C 219.875 37.330,219.707 36.950,219.828 36.755 C 219.949 36.560,219.782 36.400,219.457 36.400 C 219.132 36.400,218.776 36.625,218.665 36.900 C 218.504 37.300,218.457 37.300,218.432 36.900 C 218.414 36.625,218.119 36.400,217.776 36.400 C 217.433 36.400,217.251 36.240,217.372 36.045 C 217.693 35.526,216.517 34.680,215.956 35.027 C 215.665 35.207,215.581 35.154,215.742 34.893 C 216.028 34.431,213.903 33.196,212.839 33.206 C 212.328 33.211,212.309 33.281,212.743 33.556 C 213.121 33.796,213.151 33.983,212.843 34.174 C 212.599 34.324,212.400 34.257,212.400 34.024 C 212.400 33.791,212.085 33.586,211.700 33.568 C 211.282 33.550,211.201 33.456,211.500 33.335 C 211.775 33.224,212.000 32.968,212.000 32.767 C 212.000 32.216,210.897 32.326,210.665 32.900 C 210.554 33.175,210.449 32.995,210.432 32.500 C 210.398 31.546,209.406 31.256,209.065 32.100 C 208.929 32.436,208.853 32.448,208.832 32.137 C 208.814 31.881,208.454 31.765,208.025 31.878 C 207.599 31.989,206.839 31.792,206.336 31.440 C 205.005 30.508,194.995 30.508,193.664 31.440 C 193.161 31.792,192.410 31.991,191.994 31.883 C 191.579 31.774,191.154 31.891,191.051 32.142 C 190.922 32.458,190.853 32.444,190.832 32.100 C 190.774 31.195,189.601 31.566,189.568 32.500 C 189.551 32.995,189.446 33.175,189.335 32.900 C 189.103 32.326,188.000 32.216,188.000 32.767 C 188.000 32.968,188.225 33.224,188.500 33.335 C 188.799 33.456,188.718 33.550,188.300 33.568 C 187.915 33.586,187.600 33.791,187.600 34.024 C 187.600 34.257,187.401 34.324,187.157 34.174 C 186.849 33.983,186.879 33.796,187.257 33.556 C 187.691 33.281,187.672 33.211,187.161 33.206 C 186.097 33.196,183.972 34.431,184.258 34.893 C 184.419 35.154,184.335 35.207,184.044 35.027 C 183.483 34.680,182.307 35.526,182.628 36.045 C 182.749 36.240,182.582 36.400,182.257 36.400 C 181.932 36.400,181.576 36.625,181.465 36.900 C 181.304 37.300,181.257 37.300,181.232 36.900 C 181.214 36.625,180.930 36.400,180.600 36.400 C 180.270 36.400,180.045 36.625,180.100 36.900 C 180.160 37.201,179.813 37.379,179.225 37.346 C 178.171 37.287,177.196 38.024,177.206 38.871 C 177.211 39.262,177.314 39.243,177.600 38.800 C 177.813 38.470,177.991 38.395,177.994 38.633 C 178.004 39.354,177.504 39.618,176.970 39.175 C 176.600 38.868,176.399 38.974,176.207 39.579 C 176.041 40.100,175.603 40.400,175.006 40.400 C 174.490 40.400,173.976 40.625,173.865 40.900 C 173.704 41.300,173.657 41.300,173.632 40.900 C 173.614 40.625,173.309 40.400,172.953 40.400 C 172.504 40.400,172.370 40.644,172.516 41.200 C 172.731 42.021,172.486 42.144,170.900 42.016 C 170.405 41.976,170.000 42.115,170.000 42.325 C 170.000 42.535,169.624 42.805,169.164 42.925 C 168.533 43.090,168.392 43.345,168.590 43.968 C 168.892 44.920,168.526 45.725,167.953 45.371 C 167.706 45.219,167.735 44.920,168.030 44.564 C 168.800 43.637,167.444 43.865,165.193 45.042 C 163.359 46.001,163.032 46.452,163.098 47.931 C 163.114 48.295,162.663 48.432,161.661 48.369 C 159.915 48.258,157.600 48.760,157.600 49.250 C 157.600 49.443,157.227 49.600,156.771 49.600 C 156.194 49.600,155.984 49.813,156.081 50.300 C 156.237 51.082,154.548 52.000,152.954 52.000 C 152.429 52.000,152.000 52.180,152.000 52.400 C 152.000 52.620,152.180 52.800,152.400 52.800 C 152.620 52.800,152.800 53.016,152.800 53.280 C 152.800 53.653,152.693 53.653,152.320 53.280 C 151.694 52.654,151.179 52.690,150.202 53.429 C 149.590 53.891,149.524 54.106,149.921 54.351 C 150.332 54.605,150.311 54.776,149.819 55.184 C 149.301 55.614,149.200 55.586,149.200 55.016 C 149.200 54.639,148.976 54.415,148.700 54.517 C 148.425 54.618,148.249 54.916,148.310 55.180 C 148.370 55.444,148.256 55.558,148.055 55.434 C 147.855 55.310,147.465 55.481,147.189 55.813 C 146.913 56.146,146.394 56.325,146.037 56.212 C 145.645 56.087,145.096 56.391,144.657 56.976 C 144.214 57.566,143.688 57.855,143.318 57.713 C 142.852 57.534,142.769 57.671,142.966 58.292 C 143.135 58.824,143.019 59.184,142.632 59.332 C 142.233 59.486,142.113 59.371,142.263 58.980 C 142.404 58.612,142.234 58.400,141.800 58.400 C 141.345 58.400,141.194 58.609,141.353 59.021 C 141.484 59.362,141.425 59.539,141.223 59.414 C 140.730 59.109,137.979 60.443,138.238 60.861 C 138.350 61.043,138.185 61.093,137.872 60.972 C 137.559 60.852,137.053 61.004,136.748 61.310 C 136.442 61.615,135.699 61.989,135.096 62.140 C 134.493 62.291,134.000 62.605,134.000 62.836 C 134.000 63.544,132.890 64.470,132.706 63.917 C 132.512 63.336,130.003 65.011,129.994 65.727 C 129.990 66.036,129.868 66.011,129.642 65.654 C 129.241 65.021,126.800 66.921,126.800 67.866 C 126.800 68.160,126.530 68.400,126.200 68.400 C 125.192 68.400,125.021 68.451,124.423 68.934 C 123.963 69.306,123.915 69.286,124.185 68.838 C 124.415 68.457,124.375 68.368,124.062 68.562 C 123.808 68.719,123.600 69.184,123.600 69.597 C 123.600 70.327,122.175 71.108,121.703 70.637 C 121.573 70.506,121.777 70.400,122.157 70.400 C 122.537 70.400,122.745 70.235,122.621 70.034 C 122.497 69.833,122.621 69.577,122.898 69.466 C 123.244 69.326,123.214 69.254,122.800 69.232 C 121.893 69.185,119.874 71.073,120.225 71.640 C 120.415 71.948,120.355 72.020,120.059 71.836 C 119.799 71.676,119.489 71.824,119.355 72.172 C 119.224 72.515,118.968 72.704,118.787 72.592 C 118.606 72.480,118.337 72.767,118.190 73.231 C 118.009 73.801,117.685 74.011,117.187 73.881 C 116.783 73.775,116.095 73.938,115.659 74.244 C 115.100 74.635,114.822 74.665,114.715 74.345 C 114.571 73.912,112.939 74.558,112.400 75.261 C 112.290 75.404,110.670 76.309,108.800 77.272 C 106.321 78.548,105.431 79.207,105.516 79.705 C 105.595 80.171,105.441 80.314,105.028 80.156 C 104.383 79.908,100.400 81.536,100.400 82.048 C 100.400 82.594,101.127 82.818,101.293 82.322 C 101.393 82.022,101.547 81.991,101.701 82.240 C 101.837 82.460,101.600 82.857,101.174 83.123 C 100.537 83.521,100.400 83.500,100.400 83.003 C 100.400 82.672,100.201 82.400,99.957 82.400 C 99.714 82.400,99.614 82.661,99.737 82.980 C 99.885 83.367,99.767 83.485,99.380 83.337 C 99.061 83.214,98.800 83.314,98.800 83.557 C 98.800 83.801,98.258 84.000,97.595 84.000 C 95.759 84.000,93.600 85.390,93.600 86.571 C 93.600 87.313,92.939 87.416,92.704 86.711 C 92.600 86.401,92.133 86.630,91.426 87.337 C 90.793 87.971,90.059 88.355,89.726 88.227 C 89.081 87.980,87.831 89.002,88.149 89.517 C 88.258 89.695,87.955 90.085,87.474 90.384 C 86.677 90.881,86.648 90.870,87.149 90.264 C 87.621 89.693,87.607 89.600,87.049 89.600 C 86.667 89.600,86.400 89.929,86.400 90.400 C 86.400 90.840,86.209 91.200,85.976 91.200 C 85.743 91.200,85.678 90.997,85.832 90.748 C 86.003 90.471,85.896 90.374,85.556 90.498 C 85.250 90.609,85.043 90.896,85.095 91.136 C 85.148 91.375,84.923 91.468,84.595 91.343 C 84.223 91.200,84.000 91.351,84.000 91.745 C 84.000 92.151,83.779 92.290,83.376 92.135 C 82.959 91.976,82.678 92.179,82.529 92.748 C 82.407 93.217,82.137 93.600,81.930 93.600 C 81.722 93.600,81.664 93.420,81.800 93.200 C 82.184 92.579,81.328 92.729,80.657 93.400 C 80.327 93.730,79.774 94.000,79.429 94.000 C 79.083 94.000,78.395 94.405,77.900 94.900 C 77.405 95.395,76.910 95.816,76.800 95.835 C 76.690 95.854,76.285 95.989,75.900 96.135 C 75.515 96.281,74.919 96.489,74.575 96.597 C 74.231 96.706,74.045 96.950,74.163 97.139 C 74.280 97.329,73.931 97.399,73.388 97.296 C 72.655 97.156,72.400 97.280,72.400 97.777 C 72.400 98.146,72.563 98.346,72.763 98.223 C 72.962 98.100,72.917 98.440,72.663 98.979 C 72.357 99.627,72.066 99.825,71.803 99.563 C 71.541 99.301,71.609 99.039,72.003 98.789 C 72.515 98.466,72.505 98.411,71.929 98.406 C 71.560 98.403,70.904 98.850,70.471 99.400 C 70.039 99.950,69.396 100.400,69.042 100.400 C 68.689 100.400,68.400 100.560,68.400 100.756 C 68.400 100.951,68.175 101.103,67.900 101.093 C 66.345 101.035,65.631 101.341,64.291 102.643 C 63.474 103.436,62.882 104.209,62.975 104.359 C 63.068 104.510,62.506 104.558,61.726 104.467 C 60.363 104.308,59.612 104.782,59.612 105.800 C 59.612 106.020,59.769 105.952,59.961 105.649 C 60.153 105.346,60.511 105.221,60.755 105.372 C 61.000 105.524,61.200 105.457,61.200 105.224 C 61.200 104.991,61.363 104.800,61.563 104.800 C 61.762 104.800,61.834 105.148,61.723 105.572 C 61.610 106.007,61.290 106.256,60.992 106.142 C 60.701 106.030,60.067 106.150,59.583 106.409 C 58.989 106.727,58.792 106.737,58.975 106.440 C 59.139 106.174,58.921 106.000,58.424 106.000 C 57.971 106.000,57.600 106.159,57.600 106.353 C 57.600 106.548,57.195 106.828,56.700 106.977 C 55.826 107.239,55.823 107.257,56.600 107.595 C 57.268 107.886,57.287 107.948,56.713 107.972 C 56.271 107.990,56.107 108.215,56.255 108.600 C 56.403 108.985,56.247 109.200,55.819 109.200 C 55.453 109.200,55.264 109.020,55.400 108.800 C 55.541 108.572,55.190 108.400,54.581 108.400 C 53.808 108.400,53.576 108.561,53.740 108.987 C 53.864 109.310,53.765 109.698,53.521 109.849 C 53.252 110.015,53.189 109.941,53.362 109.662 C 53.789 108.970,52.531 109.096,51.362 109.862 C 50.736 110.272,50.518 110.626,50.790 110.794 C 51.294 111.105,50.911 112.400,50.314 112.400 C 50.094 112.400,50.016 112.136,50.140 111.813 C 50.458 110.982,49.788 110.692,49.196 111.404 C 48.924 111.732,48.482 112.000,48.212 112.000 C 47.160 112.000,45.104 113.293,45.635 113.622 C 45.954 113.819,46.350 113.684,46.664 113.271 C 46.945 112.902,47.180 112.789,47.187 113.020 C 47.213 113.865,46.309 114.379,45.530 113.963 C 44.772 113.557,44.000 113.770,44.000 114.386 C 44.000 114.573,44.388 114.624,44.863 114.500 C 45.460 114.343,45.636 114.419,45.435 114.744 C 45.275 115.002,44.977 115.109,44.772 114.983 C 44.568 114.856,44.400 114.965,44.400 115.225 C 44.400 115.581,44.254 115.577,43.810 115.208 C 43.324 114.805,43.137 114.901,42.746 115.759 C 42.485 116.332,42.110 116.800,41.912 116.800 C 41.715 116.800,41.664 116.620,41.800 116.400 C 41.936 116.180,41.677 116.000,41.224 116.000 C 40.744 116.000,40.400 116.261,40.400 116.624 C 40.400 116.967,40.220 117.136,40.000 117.000 C 39.780 116.864,39.600 116.924,39.600 117.134 C 39.600 117.343,39.305 117.628,38.943 117.766 C 38.394 117.977,38.370 117.918,38.792 117.409 C 39.576 116.465,38.846 116.690,37.527 117.800 C 36.873 118.350,36.543 118.800,36.793 118.800 C 37.043 118.800,37.141 118.972,37.011 119.183 C 36.881 119.393,36.533 119.473,36.239 119.360 C 35.944 119.246,35.451 119.406,35.143 119.714 C 34.835 120.022,34.230 120.222,33.799 120.159 C 32.875 120.023,31.508 121.127,31.871 121.715 C 32.023 121.960,31.924 122.000,31.624 121.815 C 31.034 121.450,29.336 122.245,28.185 123.423 C 27.737 123.882,27.182 124.194,26.952 124.117 C 26.721 124.040,26.335 124.388,26.093 124.889 C 25.852 125.390,25.642 125.575,25.627 125.300 C 25.589 124.592,24.800 124.675,24.800 125.387 C 24.800 125.744,24.565 125.885,24.203 125.746 C 23.873 125.619,23.505 125.783,23.378 126.114 C 23.239 126.475,22.839 126.631,22.368 126.508 C 21.774 126.352,21.647 126.458,21.837 126.952 C 22.026 127.446,21.841 127.600,21.055 127.600 C 20.271 127.600,20.084 127.754,20.273 128.246 C 20.468 128.755,20.344 128.836,19.692 128.629 C 18.717 128.320,15.632 129.659,14.540 130.866 C 13.822 131.659,13.824 131.677,14.602 131.540 C 15.041 131.463,15.619 131.130,15.887 130.800 C 16.313 130.275,16.376 130.288,16.387 130.900 C 16.394 131.285,16.265 131.613,16.100 131.630 C 14.876 131.751,13.767 132.090,13.231 132.508 C 12.674 132.942,12.664 132.918,13.149 132.300 C 13.626 131.692,13.608 131.600,13.012 131.600 C 12.634 131.600,12.234 131.948,12.123 132.373 C 12.012 132.799,11.343 133.420,10.637 133.755 C 9.932 134.090,9.111 134.819,8.813 135.376 C 8.515 135.932,7.925 136.497,7.502 136.631 C 6.914 136.818,6.784 137.126,6.950 137.938 C 7.070 138.522,7.070 138.775,6.951 138.500 C 6.831 138.225,6.588 138.000,6.409 138.000 C 5.830 138.000,5.574 139.287,6.042 139.851 C 6.409 140.293,6.289 140.400,5.420 140.400 C 4.441 140.400,4.400 140.457,4.971 141.029 C 5.707 141.764,5.800 142.171,5.139 141.762 C 4.886 141.606,4.436 141.810,4.139 142.215 C 3.834 142.632,3.600 142.735,3.600 142.453 C 3.600 142.178,3.420 142.064,3.200 142.200 C 2.980 142.336,2.800 142.763,2.800 143.148 C 2.800 143.534,2.415 144.262,1.945 144.767 C 1.475 145.272,1.250 145.801,1.445 145.942 C 2.118 146.430,2.022 147.240,1.306 147.119 C 0.775 147.029,0.603 147.265,0.613 148.070 C 0.621 148.659,0.483 149.051,0.307 148.943 C -0.259 148.593,0.130 172.690,0.700 173.260 C 0.975 173.535,1.200 174.044,1.200 174.392 C 1.200 174.739,1.560 175.283,2.000 175.600 C 2.440 175.917,2.800 176.493,2.800 176.879 C 2.800 177.265,3.259 177.882,3.820 178.250 C 4.384 178.619,4.747 179.160,4.633 179.459 C 4.518 179.757,4.556 180.000,4.715 180.000 C 4.874 180.000,5.232 180.512,5.509 181.139 C 5.786 181.765,6.468 182.485,7.025 182.739 C 8.298 183.319,8.520 183.319,8.162 182.738 C 7.985 182.452,8.052 182.385,8.338 182.562 C 8.592 182.719,8.800 183.096,8.800 183.400 C 8.800 183.704,9.008 184.081,9.262 184.238 C 9.567 184.427,9.614 184.346,9.400 184.000 C 9.181 183.646,9.232 183.573,9.558 183.774 C 9.906 183.989,9.919 184.215,9.606 184.593 C 9.087 185.218,12.081 188.000,13.272 188.000 C 13.672 188.000,14.000 188.270,14.000 188.600 C 14.000 189.114,14.997 189.422,16.100 189.247 C 16.265 189.221,16.355 189.362,16.300 189.560 C 16.245 189.758,16.335 189.938,16.500 189.960 C 17.343 190.072,17.624 189.962,17.403 189.605 C 17.263 189.378,17.423 189.311,17.779 189.447 C 18.617 189.769,18.567 190.390,17.700 190.441 C 16.967 190.484,18.941 191.074,21.000 191.427 C 21.902 191.582,22.051 191.531,21.600 191.223 C 21.105 190.884,21.154 190.811,21.876 190.806 C 22.358 190.803,22.864 190.980,23.000 191.200 C 23.136 191.420,23.777 191.600,24.424 191.600 C 25.071 191.600,25.600 191.801,25.600 192.047 C 25.600 192.301,25.245 192.400,24.777 192.278 C 24.254 192.141,24.011 192.233,24.110 192.531 C 24.430 193.492,39.891 193.374,40.197 192.408 C 40.397 191.778,40.800 191.600,42.027 191.600 C 43.493 191.600,43.827 191.319,43.630 190.249 C 43.595 190.056,43.969 190.003,44.462 190.132 C 44.955 190.261,45.638 190.149,45.979 189.883 C 46.528 189.456,46.535 189.483,46.036 190.118 C 45.726 190.513,45.231 190.744,44.936 190.631 C 44.391 190.422,44.200 190.866,44.643 191.310 C 44.864 191.530,45.467 191.302,47.200 190.344 C 47.530 190.161,48.385 189.748,49.100 189.426 C 49.815 189.104,50.400 188.641,50.400 188.397 C 50.400 188.153,50.237 188.054,50.037 188.177 C 49.838 188.300,49.875 187.978,50.119 187.461 C 50.449 186.760,50.684 186.632,51.040 186.960 C 51.405 187.297,51.362 187.464,50.858 187.672 C 50.342 187.885,50.394 187.950,51.100 187.972 L 52.000 188.000 52.047 263.700 C 52.073 305.335,52.069 339.611,52.037 339.870 C 52.005 340.128,52.164 340.454,52.389 340.593 C 52.615 340.733,52.800 341.380,52.800 342.032 C 52.800 342.892,53.061 343.336,53.752 343.651 C 54.668 344.068,54.827 345.600,53.953 345.600 C 53.759 345.600,53.600 346.140,53.600 346.800 C 53.600 347.721,53.780 348.000,54.376 348.000 C 55.253 348.000,55.807 348.625,55.241 348.975 C 55.036 349.101,54.768 348.979,54.645 348.702 C 54.522 348.426,54.466 348.650,54.520 349.200 C 54.574 349.750,54.833 350.157,55.095 350.105 C 55.366 350.051,55.473 350.265,55.344 350.601 C 55.219 350.927,55.386 351.296,55.714 351.422 C 56.053 351.552,56.230 351.963,56.124 352.371 C 56.014 352.788,56.198 353.190,56.561 353.330 C 56.925 353.469,57.088 353.827,56.950 354.185 C 56.821 354.523,56.914 354.800,57.157 354.800 C 57.401 354.800,57.600 355.070,57.600 355.400 C 57.600 355.730,57.755 356.000,57.944 356.000 C 58.134 356.000,58.719 356.810,59.244 357.800 C 59.769 358.790,60.424 359.600,60.699 359.600 C 60.975 359.600,61.200 359.772,61.200 359.982 C 61.200 360.192,61.614 360.777,62.119 361.283 C 62.625 361.788,63.159 362.517,63.307 362.901 C 63.578 363.607,64.400 363.882,64.400 363.267 C 64.400 363.083,64.645 362.933,64.945 362.933 C 65.264 362.933,65.415 363.219,65.310 363.622 C 65.093 364.454,65.968 365.100,66.389 364.418 C 66.607 364.064,66.757 364.110,66.940 364.587 C 67.078 364.947,67.025 365.139,66.823 365.014 C 66.621 364.889,66.354 364.950,66.231 365.150 C 65.862 365.747,68.007 366.953,68.523 366.437 C 68.839 366.121,68.772 366.000,68.280 366.000 C 67.906 366.000,67.600 365.826,67.600 365.613 C 67.600 365.145,68.882 365.568,69.291 366.171 C 69.451 366.407,69.487 366.906,69.371 367.279 C 69.092 368.176,71.289 369.353,72.517 368.963 C 73.266 368.725,73.321 368.773,72.892 369.289 C 72.404 369.877,77.341 372.793,77.891 372.242 C 78.258 371.876,77.567 371.238,77.028 371.445 C 76.329 371.713,75.833 370.950,76.455 370.566 C 76.748 370.385,76.816 370.450,76.638 370.738 C 76.481 370.992,76.533 371.200,76.753 371.200 C 76.973 371.200,77.264 371.020,77.400 370.800 C 77.790 370.170,78.400 370.334,78.145 371.000 C 78.018 371.330,78.124 371.600,78.381 371.600 C 78.637 371.600,78.748 371.761,78.626 371.958 C 78.377 372.361,79.296 372.800,80.387 372.800 C 80.784 372.800,81.624 373.069,82.254 373.398 C 83.469 374.031,85.420 374.202,85.701 373.700 C 85.793 373.535,85.821 373.607,85.762 373.861 C 85.553 374.764,88.683 374.789,200.000 374.789 C 311.317 374.789,314.447 374.764,314.238 373.861 C 314.179 373.607,314.207 373.535,314.299 373.700 C 314.570 374.184,316.514 374.040,317.641 373.452 C 318.214 373.153,319.564 372.782,320.641 372.627 C 323.568 372.207,327.735 370.044,327.098 369.277 C 326.682 368.776,326.742 368.728,327.483 368.963 C 328.370 369.245,330.222 368.519,331.262 367.483 C 331.558 367.188,332.293 366.624,332.897 366.230 C 333.858 365.601,334.129 364.426,333.177 365.014 C 332.975 365.139,332.922 364.947,333.060 364.587 C 333.243 364.110,333.393 364.064,333.611 364.418 C 334.032 365.100,334.907 364.454,334.690 363.622 C 334.585 363.219,334.736 362.933,335.055 362.933 C 335.355 362.933,335.600 363.083,335.600 363.267 C 335.600 363.882,336.422 363.607,336.693 362.901 C 336.841 362.517,337.375 361.788,337.881 361.283 C 338.386 360.777,338.800 360.192,338.800 359.982 C 338.800 359.772,339.025 359.600,339.301 359.600 C 339.576 359.600,340.231 358.790,340.756 357.800 C 341.281 356.810,341.866 356.000,342.056 356.000 C 342.245 356.000,342.400 355.730,342.400 355.400 C 342.400 355.070,342.599 354.800,342.843 354.800 C 343.086 354.800,343.184 354.535,343.059 354.211 C 342.935 353.886,343.124 353.459,343.478 353.260 C 343.845 353.055,344.021 352.633,343.887 352.283 C 343.750 351.926,343.910 351.567,344.267 351.430 C 344.610 351.298,344.782 350.931,344.656 350.601 C 344.527 350.265,344.634 350.051,344.905 350.105 C 345.167 350.157,345.426 349.750,345.480 349.200 C 345.534 348.650,345.478 348.426,345.355 348.702 C 345.232 348.979,344.964 349.101,344.759 348.975 C 344.197 348.627,344.745 348.000,345.612 348.000 C 346.292 348.000,346.367 347.726,346.288 345.533 C 346.228 343.849,346.359 343.014,346.700 342.900 C 346.975 342.808,347.200 342.309,347.200 341.790 C 347.200 341.272,347.385 340.733,347.611 340.593 C 347.836 340.454,347.995 340.128,347.963 339.870 C 347.931 339.611,347.927 305.335,347.953 263.700 L 348.000 188.000 348.900 187.972 C 349.606 187.950,349.658 187.885,349.142 187.672 C 348.638 187.464,348.595 187.297,348.960 186.960 C 349.316 186.632,349.551 186.760,349.881 187.461 C 350.125 187.978,350.162 188.300,349.963 188.177 C 349.763 188.054,349.600 188.153,349.600 188.397 C 349.600 188.641,350.218 189.099,350.973 189.414 C 351.728 189.730,352.458 190.171,352.596 190.394 C 352.734 190.617,353.219 190.800,353.673 190.800 C 354.401 190.800,354.434 190.718,353.949 190.100 C 353.456 189.471,353.469 189.454,354.076 189.929 C 354.448 190.220,354.654 190.715,354.533 191.029 C 354.268 191.720,355.299 191.789,356.475 191.160 C 357.072 190.840,357.222 190.840,357.025 191.160 C 356.847 191.448,357.236 191.600,358.149 191.600 C 359.195 191.600,359.610 191.801,359.800 192.400 C 360.195 193.645,374.759 193.645,375.084 192.400 C 375.241 191.799,375.630 191.600,376.647 191.600 C 377.391 191.600,378.000 191.398,378.000 191.151 C 378.000 190.859,378.175 190.833,378.500 191.076 C 379.133 191.549,380.221 191.486,380.133 190.982 C 380.097 190.772,380.637 190.622,381.333 190.648 C 382.817 190.704,384.126 190.128,383.781 189.570 C 383.649 189.356,383.689 189.206,383.870 189.237 C 384.808 189.400,385.265 189.145,385.047 188.579 C 384.911 188.223,384.978 188.063,385.205 188.203 C 385.422 188.337,385.600 188.167,385.600 187.824 C 385.600 187.481,385.780 187.200,386.000 187.200 C 386.220 187.200,386.400 187.380,386.400 187.600 C 386.400 188.388,387.484 187.976,389.142 186.557 C 390.427 185.457,390.724 184.991,390.394 184.593 C 390.081 184.215,390.094 183.989,390.442 183.774 C 390.768 183.573,390.819 183.646,390.600 184.000 C 390.386 184.346,390.433 184.427,390.738 184.238 C 390.992 184.081,391.200 183.704,391.200 183.400 C 391.200 183.096,391.408 182.719,391.662 182.562 C 391.948 182.385,392.015 182.452,391.838 182.738 C 391.480 183.319,391.702 183.319,392.975 182.739 C 393.532 182.485,394.214 181.765,394.491 181.139 C 394.768 180.512,395.107 180.000,395.245 180.000 C 395.382 180.000,395.433 179.280,395.358 178.400 C 395.284 177.520,395.397 176.800,395.611 176.800 C 395.970 176.800,396.162 177.373,396.047 178.100 C 395.911 178.962,396.825 178.238,397.056 177.300 C 397.206 176.695,397.637 175.928,398.014 175.596 C 398.700 174.993,399.011 172.623,398.350 173.031 C 398.158 173.150,398.000 173.037,398.000 172.781 C 398.000 172.524,398.264 172.416,398.587 172.540 C 399.399 172.851,399.776 172.093,399.171 171.366 C 398.774 170.886,398.778 170.669,399.196 170.283 C 399.577 169.930,399.646 169.927,399.452 170.272 C 399.306 170.532,399.354 170.848,399.558 170.974 C 399.783 171.113,399.935 166.783,399.943 159.992 C 399.951 153.825,399.826 148.861,399.665 148.960 C 399.504 149.059,399.379 148.659,399.387 148.070 C 399.397 147.265,399.225 147.029,398.694 147.119 C 397.978 147.240,397.882 146.430,398.555 145.942 C 398.750 145.801,398.525 145.272,398.055 144.767 C 397.585 144.262,397.200 143.534,397.200 143.148 C 397.200 142.277,396.540 141.818,396.266 142.498 C 396.109 142.887,396.056 142.882,396.032 142.476 C 396.014 142.188,395.844 142.049,395.653 142.167 C 395.462 142.285,395.327 141.990,395.353 141.511 C 395.386 140.894,395.110 140.571,394.404 140.403 C 393.731 140.243,393.569 140.066,393.904 139.859 C 394.498 139.492,394.516 139.196,393.994 138.400 C 393.644 137.867,393.554 137.867,393.188 138.400 C 392.876 138.854,392.836 138.741,393.022 137.938 C 393.213 137.112,393.096 136.821,392.498 136.631 C 392.075 136.497,391.485 135.932,391.187 135.376 C 390.889 134.819,390.068 134.090,389.363 133.755 C 388.657 133.420,387.988 132.799,387.877 132.373 C 387.766 131.948,387.366 131.600,386.988 131.600 C 386.392 131.600,386.374 131.692,386.851 132.300 C 387.336 132.918,387.326 132.942,386.769 132.508 C 386.233 132.090,385.124 131.751,383.900 131.630 C 383.735 131.613,383.606 131.285,383.613 130.900 C 383.624 130.288,383.687 130.275,384.113 130.800 C 384.381 131.130,384.959 131.463,385.398 131.540 C 386.176 131.677,386.178 131.659,385.460 130.866 C 384.368 129.659,381.283 128.320,380.308 128.629 C 379.656 128.836,379.532 128.755,379.727 128.246 C 379.916 127.754,379.729 127.600,378.945 127.600 C 378.159 127.600,377.974 127.446,378.163 126.952 C 378.353 126.458,378.226 126.352,377.632 126.508 C 377.161 126.631,376.761 126.475,376.622 126.114 C 376.495 125.783,376.127 125.619,375.797 125.746 C 375.435 125.885,375.200 125.744,375.200 125.387 C 375.200 124.675,374.411 124.592,374.373 125.300 C 374.358 125.575,374.148 125.390,373.907 124.889 C 373.665 124.388,373.279 124.040,373.048 124.117 C 372.818 124.194,372.263 123.882,371.815 123.423 C 370.664 122.245,368.966 121.450,368.376 121.815 C 368.076 122.000,367.977 121.960,368.129 121.715 C 368.492 121.127,367.125 120.023,366.201 120.159 C 365.770 120.222,365.165 120.022,364.857 119.714 C 364.549 119.406,364.056 119.246,363.761 119.360 C 363.467 119.473,363.119 119.393,362.989 119.183 C 362.859 118.972,362.957 118.800,363.207 118.800 C 363.457 118.800,363.127 118.350,362.473 117.800 C 361.154 116.690,360.424 116.465,361.208 117.409 C 361.630 117.918,361.606 117.977,361.057 117.766 C 360.695 117.628,360.400 117.343,360.400 117.134 C 360.400 116.924,360.220 116.864,360.000 117.000 C 359.780 117.136,359.600 116.967,359.600 116.624 C 359.600 116.261,359.256 116.000,358.776 116.000 C 358.323 116.000,358.064 116.180,358.200 116.400 C 358.336 116.620,358.285 116.800,358.088 116.800 C 357.890 116.800,357.511 116.323,357.245 115.739 C 356.880 114.939,356.649 114.791,356.301 115.139 C 356.047 115.393,355.572 115.600,355.244 115.600 C 354.799 115.600,354.844 115.454,355.424 115.027 C 356.319 114.366,356.111 114.069,353.883 112.835 C 352.821 112.247,351.917 112.051,350.867 112.183 C 349.571 112.346,349.360 112.260,349.306 111.543 C 349.246 110.747,349.273 110.742,350.024 111.422 C 350.454 111.810,350.906 112.027,351.031 111.903 C 351.348 111.585,347.795 109.200,347.004 109.200 C 346.614 109.200,346.467 109.385,346.638 109.662 C 346.811 109.941,346.748 110.015,346.479 109.849 C 346.235 109.698,346.136 109.310,346.260 108.987 C 346.424 108.561,346.192 108.400,345.419 108.400 C 344.810 108.400,344.459 108.572,344.600 108.800 C 344.736 109.020,344.547 109.200,344.181 109.200 C 343.753 109.200,343.597 108.985,343.745 108.600 C 343.893 108.215,343.729 107.990,343.287 107.972 C 342.713 107.948,342.732 107.886,343.400 107.595 C 344.177 107.257,344.174 107.239,343.300 106.977 C 342.805 106.828,342.400 106.548,342.400 106.353 C 342.400 106.159,342.029 106.000,341.576 106.000 C 341.123 106.000,340.864 106.180,341.000 106.400 C 341.136 106.620,341.137 106.800,341.003 106.800 C 340.868 106.800,340.564 106.243,340.327 105.563 C 339.933 104.431,339.767 104.338,338.382 104.470 C 337.549 104.550,336.941 104.496,337.031 104.350 C 337.121 104.205,336.526 103.436,335.709 102.643 C 334.369 101.341,333.655 101.035,332.100 101.093 C 331.825 101.103,331.600 100.951,331.600 100.756 C 331.600 100.560,331.305 100.400,330.944 100.400 C 329.230 100.400,329.226 100.334,329.213 72.303 C 329.200 46.047,329.187 45.599,328.400 45.107 C 327.949 44.826,327.597 44.169,327.594 43.604 C 327.589 42.809,327.507 42.725,327.200 43.200 C 326.909 43.650,326.812 43.450,326.812 42.400 C 326.812 41.350,326.909 41.150,327.200 41.600 C 327.517 42.090,327.589 42.044,327.594 41.347 C 327.598 40.798,327.278 40.405,326.700 40.247 C 325.949 40.041,325.899 39.935,326.400 39.606 C 326.966 39.234,326.925 39.172,326.033 39.050 C 325.832 39.023,325.517 38.836,325.333 38.636 C 325.140 38.424,325.210 38.392,325.500 38.559 C 326.222 38.975,326.135 37.677,325.390 36.933 C 325.054 36.597,324.559 36.406,324.290 36.509 C 323.976 36.629,323.784 36.265,323.755 35.495 C 323.720 34.584,322.200 32.723,322.200 33.592 C 322.200 33.671,321.780 33.510,321.266 33.235 C 320.752 32.960,320.433 32.634,320.556 32.511 C 320.680 32.387,321.055 32.514,321.390 32.792 C 321.726 33.070,322.000 33.139,322.000 32.945 C 322.000 32.424,320.429 31.535,319.988 31.807 C 319.780 31.936,319.692 31.807,319.793 31.521 C 320.305 30.074,313.083 26.200,310.698 26.642 C 310.204 26.734,310.062 26.690,310.381 26.544 C 310.747 26.377,310.228 26.086,308.981 25.757 C 306.541 25.115,274.400 24.957,274.400 25.587 M312.000 27.624 C 312.000 27.831,311.730 28.000,311.400 28.000 C 310.781 28.000,310.605 27.528,311.056 27.078 C 311.375 26.758,312.000 27.119,312.000 27.624 M179.600 38.200 C 179.600 38.530,179.308 38.800,178.951 38.800 C 178.420 38.800,178.392 38.691,178.800 38.200 C 179.074 37.870,179.366 37.600,179.449 37.600 C 179.532 37.600,179.600 37.870,179.600 38.200 M165.833 45.900 C 165.668 46.065,165.368 46.223,165.167 46.250 C 164.965 46.278,164.620 46.323,164.400 46.350 C 164.180 46.377,163.986 46.715,163.968 47.100 C 163.945 47.616,163.878 47.651,163.713 47.235 C 163.469 46.616,164.606 45.600,165.543 45.600 C 165.868 45.600,165.998 45.735,165.833 45.900 M235.779 46.135 C 236.181 46.429,236.410 46.924,236.287 47.235 C 236.122 47.651,236.055 47.616,236.032 47.100 C 236.014 46.715,235.820 46.377,235.600 46.350 C 235.380 46.323,235.035 46.278,234.833 46.250 C 234.632 46.223,234.332 46.065,234.167 45.900 C 233.644 45.377,235.015 45.577,235.779 46.135 M116.267 72.667 C 115.799 73.135,115.978 73.429,116.733 73.429 C 117.137 73.429,117.467 73.197,117.467 72.914 C 117.467 72.371,116.717 72.216,116.267 72.667 M112.400 76.733 C 112.400 77.254,111.924 77.601,111.538 77.361 C 111.124 77.106,111.481 76.400,112.024 76.400 C 112.231 76.400,112.400 76.550,112.400 76.733 M106.860 79.800 C 106.860 80.009,106.666 80.245,106.430 80.323 C 106.194 80.402,106.000 80.167,106.000 79.800 C 106.000 79.433,106.194 79.198,106.430 79.277 C 106.666 79.356,106.860 79.591,106.860 79.800 M103.600 81.400 C 103.050 81.714,102.420 81.972,102.200 81.972 C 101.980 81.972,102.250 81.714,102.800 81.400 C 103.350 81.086,103.980 80.828,104.200 80.828 C 104.420 80.828,104.150 81.086,103.600 81.400 M76.080 97.280 C 75.707 97.653,75.493 97.653,75.120 97.280 C 74.747 96.907,74.853 96.800,75.600 96.800 C 76.347 96.800,76.453 96.907,76.080 97.280 M67.403 102.391 C 67.191 103.059,67.014 103.144,66.584 102.787 C 66.282 102.536,65.802 102.450,65.518 102.595 C 65.233 102.740,65.349 102.576,65.776 102.230 C 66.381 101.740,66.623 101.711,66.870 102.100 C 67.091 102.447,67.190 102.366,67.194 101.833 C 67.197 101.412,67.306 101.173,67.437 101.303 C 67.567 101.433,67.551 101.923,67.403 102.391 M333.435 102.004 C 333.625 101.969,333.845 102.134,333.923 102.370 C 334.002 102.607,333.782 102.800,333.433 102.800 C 333.085 102.800,332.800 102.725,332.800 102.633 C 332.800 102.541,332.693 102.136,332.562 101.733 C 332.387 101.193,332.426 101.141,332.707 101.534 C 332.917 101.828,333.245 102.039,333.435 102.004 M354.204 113.694 C 354.382 113.532,354.393 113.634,354.229 113.919 C 353.884 114.516,352.790 113.845,352.813 113.051 C 352.820 112.803,353.063 112.912,353.352 113.294 C 353.642 113.675,354.025 113.855,354.204 113.694 M11.488 134.455 C 11.100 134.672,10.902 135.041,11.047 135.276 C 11.197 135.519,11.082 135.627,10.781 135.527 C 9.893 135.231,9.947 134.614,10.898 134.175 C 11.992 133.671,12.478 133.901,11.488 134.455 M389.872 134.975 C 389.805 135.181,389.511 135.430,389.219 135.527 C 388.901 135.633,388.801 135.522,388.970 135.249 C 389.124 134.999,388.969 134.686,388.625 134.554 C 388.281 134.422,388.000 134.171,388.000 133.995 C 388.000 133.819,388.448 133.883,388.997 134.138 C 389.545 134.392,389.938 134.769,389.872 134.975 M10.000 135.638 C 10.000 136.593,8.306 138.495,7.953 137.937 C 7.443 137.133,7.521 136.914,8.400 136.684 C 8.840 136.569,9.200 136.188,9.200 135.837 C 9.200 135.487,9.380 135.200,9.600 135.200 C 9.820 135.200,10.000 135.397,10.000 135.638 M390.916 136.000 C 391.031 136.440,391.412 136.800,391.763 136.800 C 392.472 136.800,392.556 137.134,392.047 137.937 C 391.694 138.495,390.000 136.593,390.000 135.638 C 390.000 134.885,390.696 135.160,390.916 136.000 M132.831 182.190 C 133.422 182.003,133.612 182.057,133.425 182.360 C 133.271 182.608,133.470 182.906,133.875 183.032 C 134.274 183.157,134.913 183.425,135.295 183.629 C 136.174 184.099,136.510 184.102,136.223 183.637 C 136.100 183.438,136.436 183.481,136.969 183.733 C 137.503 183.984,137.760 184.301,137.541 184.436 C 136.944 184.805,139.528 187.199,140.531 187.206 C 141.254 187.211,141.299 187.283,140.800 187.634 C 140.339 187.959,140.500 188.020,141.490 187.899 C 142.533 187.772,142.695 187.844,142.336 188.277 C 141.850 188.862,143.829 190.953,144.485 190.547 C 144.669 190.434,144.794 190.489,144.763 190.670 C 144.579 191.727,144.908 192.469,145.700 192.788 C 146.195 192.987,146.375 193.161,146.100 193.175 C 145.825 193.189,145.600 193.391,145.600 193.624 C 145.600 193.857,145.778 193.937,145.995 193.803 C 146.231 193.657,146.284 193.838,146.126 194.249 C 145.925 194.771,146.019 194.878,146.510 194.690 C 146.990 194.506,147.094 194.610,146.910 195.090 C 146.724 195.575,146.830 195.674,147.327 195.483 C 147.756 195.319,148.326 195.586,148.926 196.234 C 150.174 197.579,155.095 197.555,155.790 196.200 C 156.130 195.536,156.574 195.408,158.400 195.449 C 159.691 195.478,160.926 195.271,161.389 194.949 C 161.901 194.592,161.983 194.400,161.622 194.400 C 161.317 194.400,161.182 194.284,161.324 194.143 C 161.465 194.002,161.890 194.137,162.267 194.443 C 162.667 194.768,162.833 194.800,162.666 194.520 C 162.206 193.754,164.411 193.543,171.501 193.677 C 175.562 193.754,178.075 193.650,178.197 193.400 C 178.305 193.180,178.292 193.405,178.169 193.900 C 178.007 194.556,178.123 194.800,178.597 194.800 C 178.954 194.800,179.136 194.620,179.000 194.400 C 178.850 194.158,179.354 194.016,180.276 194.040 C 181.628 194.075,181.687 194.116,180.800 194.400 C 179.869 194.698,179.861 194.723,180.676 194.760 C 181.158 194.782,181.664 194.979,181.799 195.198 C 181.934 195.417,182.890 195.573,183.923 195.543 C 187.251 195.449,187.750 195.538,187.252 196.137 C 186.565 196.965,187.123 197.200,189.778 197.200 C 191.765 197.200,192.332 197.050,192.800 196.400 C 193.139 195.930,193.835 195.600,194.488 195.600 C 195.437 195.600,195.600 195.437,195.600 194.488 C 195.600 193.835,195.930 193.139,196.400 192.800 C 196.840 192.483,197.200 191.999,197.200 191.724 C 197.200 191.449,197.464 191.327,197.790 191.451 C 198.386 191.680,199.600 190.767,199.600 190.091 C 199.600 189.889,199.956 189.402,200.391 189.009 C 200.825 188.615,201.095 188.154,200.990 187.984 C 200.885 187.814,201.157 187.768,201.595 187.883 C 202.097 188.014,202.481 187.856,202.635 187.453 C 202.769 187.103,203.492 186.438,204.240 185.975 C 204.988 185.513,205.600 184.821,205.600 184.437 C 205.600 183.889,205.858 183.776,206.800 183.915 C 207.843 184.068,208.001 183.967,208.006 183.145 C 208.011 182.397,208.091 182.324,208.389 182.797 C 208.690 183.272,208.868 183.292,209.263 182.897 C 209.537 182.623,210.339 182.400,211.047 182.400 C 211.754 182.400,212.409 182.265,212.501 182.100 C 212.593 181.935,212.614 182.025,212.547 182.300 C 212.354 183.091,212.833 184.000,213.443 184.000 C 213.749 184.000,214.000 184.075,214.000 184.167 C 214.000 184.259,214.107 184.664,214.238 185.067 C 214.435 185.677,214.403 185.699,214.044 185.200 C 213.682 184.697,213.611 184.738,213.606 185.451 C 213.603 185.919,213.878 186.533,214.218 186.815 C 214.558 187.097,214.744 187.568,214.632 187.861 C 214.519 188.154,214.786 188.728,215.224 189.136 C 215.952 189.814,216.021 190.407,216.027 196.039 C 216.037 205.516,216.057 205.200,215.443 205.200 C 214.874 205.200,214.400 206.027,214.400 207.020 C 214.400 207.368,214.662 207.491,215.100 207.350 C 215.642 207.175,215.676 207.213,215.249 207.518 C 214.946 207.734,214.820 208.109,214.970 208.351 C 215.140 208.627,215.012 208.703,214.624 208.554 C 214.279 208.421,213.938 208.556,213.851 208.858 C 213.765 209.156,213.461 210.210,213.175 211.200 C 212.890 212.190,212.500 213.208,212.310 213.463 C 211.801 214.144,212.101 219.818,212.641 219.720 C 212.909 219.671,213.004 220.046,212.883 220.679 C 212.727 221.491,212.806 221.645,213.242 221.383 C 213.707 221.103,213.713 221.153,213.281 221.688 C 212.931 222.119,212.899 222.414,213.181 222.588 C 213.411 222.731,213.600 223.184,213.600 223.595 C 213.600 224.006,213.851 224.594,214.158 224.901 C 214.500 225.243,214.632 225.897,214.500 226.591 C 214.308 227.595,214.381 227.698,215.142 227.499 C 216.421 227.165,216.475 234.311,215.200 235.107 C 214.174 235.748,214.090 237.285,215.100 236.926 C 215.518 236.777,215.358 237.068,214.700 237.651 C 214.095 238.187,213.600 238.951,213.600 239.350 C 213.600 240.172,212.224 242.091,211.881 241.747 C 211.757 241.623,211.752 241.269,211.870 240.961 C 212.031 240.542,211.711 240.400,210.603 240.400 C 209.472 240.400,208.855 240.116,208.000 239.200 C 206.897 238.020,205.240 237.479,205.853 238.500 C 206.041 238.812,205.888 238.785,205.446 238.426 C 204.832 237.927,204.687 237.927,204.343 238.426 C 204.050 238.851,204.013 238.767,204.201 238.100 C 204.462 237.172,203.810 236.808,203.483 237.700 C 203.341 238.087,203.176 238.074,202.750 237.641 C 202.283 237.167,202.290 237.133,202.800 237.418 C 203.317 237.707,203.324 237.660,202.851 237.077 C 201.929 235.940,184.000 236.057,184.000 237.200 C 184.000 237.644,183.733 238.000,183.400 238.000 C 183.070 238.000,182.800 238.174,182.800 238.387 C 182.800 238.601,183.109 238.656,183.487 238.511 C 184.096 238.278,184.107 238.320,183.587 238.884 C 183.264 239.235,182.940 239.359,182.867 239.161 C 182.641 238.550,182.066 238.761,181.817 239.547 C 181.686 239.958,181.759 240.766,181.978 241.343 C 182.198 241.920,182.247 242.373,182.089 242.349 C 181.342 242.236,181.052 242.445,181.534 242.750 C 181.961 243.021,181.936 243.139,181.413 243.340 C 180.989 243.502,180.856 243.433,181.035 243.144 C 181.201 242.875,181.090 242.769,180.756 242.879 C 180.450 242.980,180.147 243.499,180.083 244.031 C 179.986 244.830,180.045 244.895,180.420 244.400 C 180.792 243.911,180.818 243.947,180.562 244.600 C 180.390 245.040,180.270 245.985,180.296 246.700 C 180.327 247.557,180.156 248.000,179.795 248.000 C 178.965 248.000,178.646 248.750,178.265 251.600 C 177.744 255.500,177.579 263.600,178.021 263.600 C 178.229 263.600,178.400 264.692,178.400 266.026 C 178.400 268.641,178.883 270.000,179.812 270.000 C 180.257 270.000,180.342 270.339,180.169 271.425 C 180.027 272.321,180.139 273.091,180.471 273.501 C 180.856 273.976,180.864 274.072,180.500 273.853 C 180.189 273.666,180.000 273.779,180.000 274.153 C 180.000 274.483,180.157 274.850,180.348 274.968 C 180.540 275.086,180.808 275.739,180.944 276.418 C 181.086 277.128,181.367 277.544,181.606 277.396 C 181.874 277.231,181.948 277.562,181.813 278.329 C 181.645 279.280,181.858 279.787,182.876 280.859 L 184.148 282.200 184.108 291.297 C 184.086 296.414,184.228 300.494,184.434 300.621 C 184.635 300.745,184.800 301.377,184.800 302.024 C 184.800 302.671,184.935 303.201,185.100 303.203 C 185.411 303.206,186.400 305.104,186.400 305.698 C 186.400 305.884,186.844 306.480,187.386 307.022 C 187.933 307.569,188.272 308.269,188.147 308.594 C 187.896 309.248,188.591 310.079,189.800 310.569 C 190.311 310.776,190.420 310.961,190.100 311.080 C 189.331 311.367,189.508 312.000,190.357 312.000 C 190.774 312.000,191.218 312.270,191.345 312.600 C 191.471 312.930,191.896 313.203,192.287 313.206 C 192.881 313.211,192.902 313.274,192.413 313.584 C 191.921 313.895,191.977 314.086,192.759 314.765 C 193.780 315.650,193.715 317.028,192.599 318.143 C 192.270 318.473,192.000 319.082,192.000 319.496 C 192.000 319.910,191.640 320.636,191.200 321.108 C 190.373 321.995,190.094 323.036,190.800 322.600 C 191.020 322.464,191.200 322.633,191.200 322.976 C 191.200 323.319,190.970 323.600,190.689 323.600 C 190.029 323.600,188.800 325.034,188.800 325.805 C 188.800 326.132,188.618 326.400,188.396 326.400 C 188.170 326.400,188.067 327.003,188.162 327.770 C 188.278 328.705,188.152 329.209,187.766 329.358 C 187.455 329.477,187.200 329.930,187.200 330.364 C 187.200 330.798,187.020 331.264,186.800 331.400 C 186.580 331.536,186.413 332.042,186.428 332.524 C 186.455 333.369,186.469 333.371,186.800 332.600 C 187.109 331.880,187.147 331.906,187.172 332.853 C 187.191 333.584,186.955 333.971,186.402 334.115 C 185.663 334.309,185.623 334.550,185.861 337.362 C 186.077 339.928,186.023 340.400,185.509 340.400 C 185.127 340.400,184.900 340.771,184.900 341.393 C 184.900 341.939,185.058 342.288,185.250 342.169 C 185.442 342.050,185.600 341.693,185.600 341.376 C 185.600 341.059,185.791 340.800,186.024 340.800 C 186.268 340.800,186.311 341.011,186.124 341.300 C 185.946 341.575,185.710 346.030,185.600 351.200 C 185.490 356.370,185.265 360.555,185.100 360.500 C 184.935 360.445,172.290 360.400,157.000 360.400 L 129.200 360.400 129.200 333.000 C 129.200 314.787,129.336 305.600,129.605 305.600 C 129.855 305.600,129.908 304.968,129.744 303.939 C 129.552 302.737,129.633 302.157,130.039 301.838 C 130.723 301.300,130.949 300.400,130.400 300.400 C 129.662 300.400,129.991 299.696,130.831 299.476 C 131.548 299.288,131.648 298.992,131.559 297.319 C 131.471 295.660,131.616 295.220,132.564 294.272 C 133.285 293.551,133.582 292.930,133.415 292.494 C 133.273 292.126,133.284 291.951,133.438 292.105 C 133.731 292.398,135.599 290.455,135.600 289.857 C 135.600 289.669,135.330 289.618,135.000 289.745 C 134.670 289.871,134.400 289.886,134.400 289.778 C 134.400 289.669,134.870 289.401,135.445 289.183 C 136.218 288.889,136.436 288.579,136.282 287.992 C 136.168 287.556,136.217 287.287,136.392 287.395 C 136.822 287.661,137.666 286.600,137.309 286.242 C 137.152 286.086,137.335 286.077,137.714 286.222 C 138.251 286.428,138.458 286.212,138.651 285.243 C 138.788 284.559,139.148 284.000,139.450 284.000 C 139.753 284.000,140.000 283.925,140.000 283.833 C 140.000 283.741,140.107 283.336,140.238 282.933 C 140.431 282.338,140.397 282.311,140.059 282.788 C 139.831 283.112,139.543 283.276,139.419 283.153 C 139.296 283.029,139.587 282.585,140.066 282.164 C 140.545 281.744,140.806 281.625,140.645 281.900 C 140.483 282.178,140.554 282.400,140.805 282.400 C 141.569 282.400,142.400 281.308,142.400 280.304 C 142.400 279.699,142.859 279.011,143.657 278.421 C 144.349 277.910,144.788 277.696,144.633 277.946 C 144.468 278.214,144.620 278.400,145.003 278.400 C 145.472 278.400,145.583 278.176,145.400 277.600 C 145.249 277.123,145.328 276.800,145.597 276.800 C 145.844 276.800,145.936 276.980,145.800 277.200 C 145.664 277.420,145.827 277.600,146.162 277.600 C 146.711 277.600,147.750 276.256,147.786 275.500 C 147.794 275.335,147.907 275.245,148.039 275.300 C 148.170 275.355,148.609 275.130,149.015 274.800 C 149.439 274.456,149.626 274.413,149.453 274.700 C 149.261 275.020,149.393 275.200,149.819 275.200 C 150.230 275.200,150.402 274.983,150.268 274.633 C 150.148 274.321,150.318 273.963,150.646 273.838 C 150.982 273.709,151.135 273.781,150.997 274.005 C 150.863 274.222,151.033 274.400,151.376 274.400 C 152.094 274.400,152.185 273.945,151.587 273.347 C 151.302 273.062,151.359 272.933,151.769 272.933 C 152.097 272.933,152.272 273.083,152.159 273.267 C 152.045 273.450,152.214 273.600,152.534 273.600 C 152.853 273.600,153.218 273.330,153.345 273.000 C 153.471 272.670,153.919 272.400,154.338 272.400 C 155.524 272.400,156.097 271.394,155.897 269.667 C 155.753 268.417,155.844 268.118,156.359 268.154 C 157.338 268.224,157.483 265.688,156.523 265.297 C 155.989 265.080,155.795 264.575,155.797 263.415 C 155.800 261.841,154.201 260.227,153.601 261.198 C 153.471 261.409,153.136 261.404,152.789 261.185 C 152.273 260.858,152.274 260.810,152.800 260.793 C 153.677 260.764,150.350 259.230,149.375 259.214 C 148.922 259.206,148.164 258.840,147.692 258.400 C 147.220 257.960,146.556 257.600,146.217 257.600 C 145.878 257.600,145.600 257.420,145.600 257.200 C 145.600 256.980,145.240 256.800,144.800 256.800 C 144.360 256.800,144.000 256.601,144.000 256.357 C 144.000 256.114,143.771 256.002,143.490 256.110 C 143.210 256.218,142.364 255.697,141.610 254.953 C 140.856 254.209,140.048 253.600,139.815 253.600 C 139.583 253.600,139.157 253.222,138.868 252.761 C 138.538 252.232,138.069 251.993,137.602 252.115 C 137.088 252.250,136.925 252.139,137.073 251.755 C 137.190 251.450,137.086 251.200,136.843 251.200 C 136.599 251.200,136.400 250.964,136.400 250.675 C 136.400 249.797,134.118 247.869,133.403 248.143 C 133.049 248.280,132.842 248.256,132.944 248.091 C 133.046 247.926,132.868 247.434,132.549 246.998 C 132.093 246.374,131.898 246.318,131.640 246.736 C 131.392 247.136,131.257 247.062,131.093 246.433 C 130.973 245.974,131.038 245.700,131.237 245.823 C 131.437 245.946,131.600 245.677,131.600 245.224 C 131.600 244.675,131.341 244.400,130.824 244.400 C 130.397 244.400,129.917 244.189,129.758 243.932 C 129.564 243.617,129.687 243.548,130.134 243.719 C 131.031 244.064,130.974 243.537,130.000 242.492 C 129.560 242.020,129.200 241.356,129.200 241.017 C 129.200 240.677,128.858 240.400,128.438 240.400 C 127.639 240.400,126.813 236.949,127.389 236.018 C 127.531 235.788,127.412 235.586,127.124 235.568 C 126.721 235.544,126.715 235.490,127.100 235.335 C 127.375 235.224,127.600 234.859,127.600 234.524 C 127.600 234.189,127.375 234.001,127.100 234.107 C 126.483 234.345,126.647 229.679,127.283 228.905 C 127.506 228.633,127.571 227.939,127.426 227.363 C 127.050 225.864,127.580 222.800,128.216 222.800 C 129.306 222.800,129.904 220.637,129.633 217.678 C 129.491 216.129,129.515 214.948,129.687 215.054 C 130.180 215.358,130.054 214.596,129.406 213.346 C 129.079 212.716,128.584 212.200,128.306 212.200 C 128.028 212.200,127.743 211.705,127.673 211.100 C 127.604 210.495,127.391 210.000,127.201 210.000 C 127.011 210.000,127.023 209.416,127.228 208.703 C 127.750 206.884,127.698 205.877,127.094 206.109 C 126.724 206.251,126.629 205.873,126.741 204.699 C 126.847 203.588,126.757 203.180,126.447 203.371 C 126.194 203.528,126.000 203.387,126.000 203.047 C 126.000 202.717,126.183 202.334,126.407 202.196 C 126.630 202.058,126.708 201.774,126.579 201.566 C 126.450 201.357,126.177 201.291,125.972 201.417 C 125.753 201.553,125.600 200.163,125.600 198.036 C 125.600 194.991,125.694 194.461,126.200 194.655 C 126.648 194.827,126.798 194.596,126.794 193.743 C 126.789 192.858,126.700 192.735,126.400 193.200 C 126.167 193.561,126.010 193.610,126.006 193.324 C 126.003 193.062,126.200 192.724,126.444 192.573 C 126.697 192.416,126.799 191.747,126.680 191.015 C 126.565 190.309,126.652 189.477,126.874 189.166 C 127.193 188.716,127.229 188.744,127.050 189.300 C 126.926 189.685,126.999 190.000,127.213 190.000 C 127.772 190.000,127.689 188.256,127.100 187.621 C 126.695 187.185,126.707 187.144,127.163 187.404 C 127.592 187.649,127.674 187.525,127.505 186.881 C 127.353 186.297,127.550 185.863,128.146 185.472 C 128.619 185.162,129.268 184.389,129.587 183.754 C 130.569 181.800,130.847 181.541,131.434 182.028 C 131.724 182.269,132.353 182.342,132.831 182.190 M382.432 189.583 C 382.959 189.301,383.200 189.302,383.200 189.586 C 383.200 189.814,383.035 190.000,382.833 190.000 C 382.631 190.000,382.181 190.109,381.833 190.243 C 381.391 190.412,381.210 190.261,381.232 189.743 C 381.249 189.327,381.352 189.219,381.464 189.497 C 381.610 189.858,381.874 189.882,382.432 189.583 M272.529 249.041 C 272.411 249.349,272.558 249.603,272.857 249.606 C 273.308 249.611,273.307 249.671,272.849 249.961 C 272.541 250.156,272.431 250.526,272.599 250.798 C 272.831 251.173,272.981 251.160,273.249 250.743 C 273.465 250.408,273.503 250.699,273.349 251.500 C 273.200 252.279,273.263 252.800,273.507 252.800 C 273.731 252.800,274.028 253.095,274.166 253.457 C 274.370 253.986,274.309 254.022,273.851 253.643 C 273.397 253.265,273.296 253.313,273.342 253.886 C 273.374 254.279,273.625 254.744,273.900 254.920 C 274.688 255.424,274.594 262.400,273.800 262.400 C 273.470 262.400,273.200 262.580,273.200 262.800 C 273.200 263.020,273.425 263.203,273.700 263.206 C 274.079 263.211,274.072 263.293,273.672 263.547 C 273.342 263.756,273.192 264.464,273.272 265.441 C 273.357 266.473,273.197 267.161,272.800 267.476 C 272.310 267.864,272.290 268.099,272.692 268.757 C 273.001 269.264,273.038 269.653,272.792 269.805 C 272.576 269.938,272.400 270.577,272.400 271.224 C 272.400 272.133,272.219 272.400,271.600 272.400 C 271.067 272.400,270.800 272.667,270.800 273.200 C 270.800 273.640,270.620 274.000,270.400 274.000 C 270.180 274.000,270.000 274.360,270.000 274.800 C 270.000 275.240,270.191 275.600,270.424 275.600 C 270.657 275.600,270.749 275.440,270.628 275.245 C 270.507 275.050,270.722 274.645,271.104 274.345 C 271.719 273.864,271.742 273.874,271.303 274.437 C 271.030 274.787,270.919 275.185,271.055 275.322 C 271.192 275.458,270.830 275.786,270.252 276.049 C 269.673 276.313,269.200 276.690,269.200 276.888 C 269.200 277.085,269.408 277.119,269.662 276.962 C 269.941 276.789,270.015 276.852,269.849 277.121 C 269.698 277.365,269.310 277.464,268.987 277.340 C 268.526 277.163,268.400 277.490,268.400 278.861 C 268.400 280.174,268.202 280.731,267.600 281.107 C 266.490 281.800,266.482 284.532,267.587 285.306 C 268.678 286.070,269.062 297.305,268.026 298.113 C 267.463 298.551,267.461 298.523,268.000 297.835 C 268.514 297.179,268.517 297.097,268.017 297.263 C 267.697 297.368,267.125 297.983,266.746 298.628 C 265.937 300.008,265.828 300.553,266.440 300.175 C 266.749 299.984,266.745 300.156,266.426 300.752 C 266.176 301.218,265.753 301.586,265.486 301.568 C 265.120 301.545,265.123 301.487,265.500 301.335 C 265.775 301.224,266.000 300.940,266.000 300.705 C 266.000 300.469,265.640 300.602,265.200 301.000 C 264.760 301.398,264.400 301.938,264.400 302.201 C 264.400 303.013,263.066 305.398,262.896 304.889 C 262.780 304.539,262.574 304.569,262.142 305.001 C 261.816 305.327,261.653 305.763,261.781 305.969 C 261.909 306.176,261.802 306.475,261.545 306.634 C 261.252 306.815,261.184 306.750,261.362 306.462 C 261.519 306.208,261.523 306.000,261.371 306.000 C 260.954 306.000,259.599 307.659,259.606 308.161 C 259.609 308.403,259.767 308.356,259.956 308.057 C 260.196 307.679,260.383 307.649,260.574 307.957 C 260.850 308.404,260.383 308.551,259.100 308.421 C 258.289 308.338,258.190 308.830,258.880 309.520 C 259.253 309.893,259.253 310.000,258.880 310.000 C 258.616 310.000,258.400 309.820,258.400 309.600 C 258.400 308.996,257.222 309.121,256.546 309.797 C 256.218 310.125,256.049 310.556,256.172 310.755 C 256.295 310.954,256.108 311.227,255.756 311.361 C 255.404 311.497,255.216 311.865,255.338 312.183 C 255.485 312.567,255.366 312.685,254.980 312.537 C 254.321 312.284,254.161 313.405,254.800 313.800 C 255.020 313.936,255.179 314.532,255.153 315.124 L 255.105 316.200 254.800 315.000 C 254.537 313.965,254.488 314.084,254.447 315.858 C 254.407 317.626,254.569 318.096,255.600 319.200 C 256.260 319.907,256.800 320.583,256.800 320.704 C 256.800 320.825,257.528 321.616,258.417 322.462 C 259.306 323.308,259.932 324.000,259.809 324.000 C 259.502 324.000,260.992 326.772,261.949 327.980 C 262.611 328.817,262.818 328.883,263.362 328.431 C 263.805 328.064,264.000 328.043,264.000 328.364 C 264.000 328.617,263.750 328.921,263.444 329.038 C 263.003 329.208,262.979 329.490,263.328 330.414 C 263.624 331.198,263.868 331.418,264.077 331.089 C 264.250 330.816,264.390 331.431,264.394 332.476 C 264.397 333.508,264.580 334.464,264.800 334.600 C 265.020 334.736,265.200 335.175,265.200 335.575 C 265.200 335.975,265.505 336.549,265.877 336.851 C 266.453 337.319,266.503 337.317,266.215 336.838 C 265.985 336.457,266.025 336.368,266.338 336.562 C 266.968 336.951,266.936 340.284,266.300 340.517 C 265.900 340.663,265.900 340.806,266.300 341.230 C 266.671 341.623,266.800 344.173,266.800 351.080 L 266.800 360.400 232.800 360.400 L 198.800 360.400 198.800 349.800 C 198.800 342.529,198.935 339.200,199.229 339.200 C 199.484 339.200,199.625 338.434,199.577 337.300 C 199.456 334.401,199.559 333.591,200.037 333.700 C 200.278 333.755,200.610 333.530,200.775 333.200 C 200.940 332.870,201.272 332.216,201.512 331.746 C 201.753 331.276,201.855 330.466,201.740 329.946 C 201.578 329.214,201.624 329.133,201.944 329.589 C 202.476 330.347,203.001 329.213,202.682 327.993 C 202.557 327.514,202.636 327.299,202.882 327.451 C 203.106 327.589,203.447 327.454,203.639 327.151 C 204.146 326.351,204.077 325.906,203.500 326.253 C 203.119 326.482,203.106 326.417,203.446 325.977 C 203.692 325.660,204.009 325.130,204.151 324.800 C 204.293 324.470,204.334 324.605,204.242 325.100 C 204.150 325.595,204.143 326.000,204.227 326.000 C 204.579 326.000,205.545 323.678,205.296 323.430 C 205.147 323.280,205.298 323.263,205.631 323.391 C 206.334 323.660,208.210 321.863,207.844 321.272 C 207.712 321.058,207.885 320.776,208.228 320.645 C 208.576 320.511,208.724 320.201,208.564 319.941 C 208.379 319.643,208.452 319.585,208.765 319.778 C 209.509 320.238,210.316 318.830,210.170 317.325 C 210.076 316.352,210.202 316.000,210.647 316.000 C 211.072 316.000,211.215 315.672,211.127 314.900 C 211.057 314.295,210.802 313.836,210.559 313.880 C 210.297 313.928,210.194 313.564,210.306 312.980 C 210.419 312.390,210.306 312.000,210.023 312.000 C 209.764 312.000,209.664 312.180,209.800 312.400 C 210.355 313.298,209.242 312.724,208.637 311.800 C 208.276 311.250,208.151 310.800,208.357 310.800 C 208.564 310.800,208.814 311.025,208.912 311.300 C 209.010 311.575,209.192 311.708,209.316 311.596 C 209.440 311.484,208.924 310.699,208.171 309.852 C 207.417 309.005,206.797 308.557,206.794 308.856 C 206.789 309.309,206.730 309.308,206.439 308.849 C 206.247 308.546,205.916 308.404,205.705 308.535 C 205.494 308.666,205.070 308.284,204.763 307.686 C 203.941 306.083,201.921 304.002,201.462 304.285 C 201.233 304.427,201.164 304.270,201.301 303.914 C 201.431 303.575,201.336 303.096,201.089 302.849 C 200.535 302.295,199.863 302.255,200.197 302.795 C 200.332 303.013,200.200 303.098,199.906 302.985 C 199.611 302.872,199.377 302.289,199.385 301.690 C 199.397 300.824,199.236 300.624,198.600 300.717 C 197.927 300.815,197.895 300.763,198.400 300.386 C 198.852 300.049,198.877 299.889,198.500 299.736 C 198.225 299.625,198.000 299.358,198.000 299.143 C 198.000 298.928,198.180 298.864,198.400 299.000 C 198.620 299.136,198.800 299.069,198.800 298.851 C 198.800 298.632,198.459 298.346,198.043 298.214 C 197.627 298.082,197.186 297.574,197.063 297.087 C 196.847 296.228,196.858 296.225,197.420 296.976 C 197.988 297.737,198.000 297.735,198.000 296.900 C 198.000 296.431,197.820 295.936,197.600 295.800 C 197.380 295.664,197.200 294.827,197.200 293.939 C 197.200 292.662,197.033 292.281,196.400 292.116 C 195.568 291.898,195.303 290.631,196.000 290.200 C 196.220 290.064,196.400 290.154,196.400 290.400 C 196.400 290.646,196.580 290.736,196.800 290.600 C 197.382 290.240,197.298 286.912,196.700 286.637 C 196.425 286.511,196.605 286.508,197.100 286.631 C 197.844 286.815,197.995 286.693,197.968 285.927 C 197.951 285.417,197.846 285.225,197.735 285.500 C 197.624 285.775,197.362 286.000,197.153 286.000 C 196.932 286.000,196.959 285.649,197.217 285.168 C 198.026 283.657,197.285 278.474,196.154 277.733 C 195.456 277.276,195.267 276.872,195.436 276.200 C 195.568 275.672,195.454 275.157,195.164 274.978 C 194.810 274.759,194.741 274.869,194.927 275.355 C 195.072 275.733,195.034 275.945,194.843 275.827 C 194.652 275.709,194.410 275.165,194.306 274.618 C 194.201 274.071,194.270 273.719,194.458 273.836 C 194.646 273.952,194.800 273.657,194.800 273.181 C 194.800 272.589,194.617 272.385,194.220 272.537 C 193.831 272.686,193.715 272.567,193.865 272.175 C 193.989 271.853,193.907 271.367,193.683 271.095 C 193.460 270.823,193.214 270.164,193.138 269.631 C 193.062 269.099,192.750 268.580,192.444 268.479 C 192.066 268.355,191.989 268.473,192.203 268.848 C 192.448 269.279,192.405 269.296,192.008 268.930 C 190.746 267.763,191.143 250.599,192.442 250.187 C 192.859 250.054,193.200 249.598,193.200 249.173 C 193.200 248.217,193.508 248.200,194.537 249.100 C 194.977 249.485,195.200 249.566,195.033 249.280 C 194.798 248.879,195.146 248.781,196.542 248.853 C 197.540 248.905,198.284 249.064,198.196 249.207 C 198.107 249.350,197.442 249.414,196.718 249.350 C 195.993 249.286,195.760 249.333,196.200 249.455 C 196.640 249.578,197.171 249.840,197.380 250.039 C 197.589 250.237,198.129 250.397,198.580 250.394 C 199.256 250.389,199.295 250.320,198.800 250.000 C 198.439 249.767,198.390 249.610,198.676 249.606 C 198.938 249.603,199.272 249.792,199.417 250.027 C 199.562 250.262,199.942 250.354,200.261 250.232 C 200.580 250.109,200.739 250.175,200.614 250.377 C 200.489 250.579,200.570 250.858,200.793 250.996 C 201.017 251.134,201.200 251.057,201.200 250.824 C 201.200 250.591,201.391 250.400,201.624 250.400 C 201.857 250.400,201.949 250.560,201.828 250.755 C 201.467 251.339,202.681 252.070,203.880 251.990 C 205.856 251.858,206.290 251.955,205.620 252.379 C 205.160 252.670,205.310 252.895,206.350 253.473 C 207.070 253.873,208.021 254.504,208.462 254.875 C 208.904 255.246,209.550 255.441,209.898 255.307 C 210.246 255.173,210.433 255.230,210.312 255.432 C 210.191 255.634,210.601 256.296,211.222 256.901 C 211.881 257.544,212.456 257.833,212.603 257.595 C 212.742 257.370,213.026 257.292,213.234 257.421 C 213.443 257.550,213.505 257.831,213.372 258.045 C 212.992 258.661,214.004 259.600,215.049 259.600 C 215.707 259.600,216.000 259.828,216.000 260.339 C 216.000 261.912,217.219 263.681,217.915 263.117 C 218.365 262.752,218.467 262.744,218.261 263.087 C 218.089 263.374,218.445 264.073,219.128 264.787 C 220.307 266.021,221.081 266.407,220.559 265.500 C 220.392 265.210,220.424 265.140,220.636 265.333 C 220.836 265.517,221.000 265.862,221.000 266.100 C 221.000 266.338,221.225 266.608,221.500 266.700 C 221.775 266.792,222.000 266.710,222.000 266.518 C 222.000 266.009,224.160 265.929,225.379 266.392 C 226.202 266.705,226.478 266.663,226.657 266.196 C 226.997 265.310,237.805 265.314,238.145 266.200 C 238.271 266.530,238.786 266.797,239.287 266.794 C 240.023 266.789,240.084 266.713,239.600 266.400 C 239.165 266.119,239.514 266.011,240.867 266.006 C 241.948 266.003,242.799 266.198,242.890 266.471 C 243.149 267.247,243.963 266.448,243.796 265.581 C 243.711 265.135,243.813 264.885,244.027 265.017 C 244.240 265.148,244.309 265.423,244.183 265.628 C 244.056 265.832,244.174 266.000,244.445 266.000 C 245.201 266.000,246.400 264.759,246.400 263.975 C 246.400 263.472,246.625 263.334,247.200 263.484 C 247.765 263.632,248.000 263.496,248.000 263.023 C 248.000 262.618,247.802 262.453,247.500 262.606 C 247.225 262.745,247.312 262.603,247.694 262.290 C 248.075 261.977,248.270 261.604,248.127 261.460 C 247.984 261.317,248.077 261.200,248.333 261.200 C 248.590 261.200,248.806 261.425,248.813 261.700 C 248.831 262.355,250.400 260.469,250.400 259.793 C 250.400 259.472,250.704 259.354,251.200 259.484 C 251.814 259.645,252.000 259.496,252.000 258.847 C 252.000 258.381,252.204 258.000,252.453 258.000 C 253.398 258.000,254.438 256.328,253.899 255.674 C 253.465 255.147,253.513 255.129,254.274 255.535 C 255.473 256.173,255.599 256.132,255.606 255.100 C 255.610 254.567,255.732 254.386,255.906 254.657 C 256.377 255.391,259.525 253.729,259.677 252.667 C 259.768 252.024,260.033 251.832,260.700 251.925 C 261.315 252.011,261.600 251.845,261.600 251.402 C 261.600 251.045,261.783 250.866,262.007 251.004 C 262.230 251.142,262.309 251.423,262.183 251.628 C 261.710 252.392,263.121 251.965,264.117 251.042 C 264.685 250.515,265.266 250.200,265.408 250.341 C 265.550 250.483,265.945 250.239,266.287 249.799 C 266.787 249.156,266.861 249.136,266.666 249.700 C 266.410 250.442,266.982 250.676,267.400 250.000 C 267.536 249.780,268.267 249.600,269.024 249.600 C 270.246 249.600,270.569 249.326,270.472 248.373 C 270.459 248.248,270.965 248.221,271.596 248.314 C 272.376 248.429,272.675 248.661,272.529 249.041 M181.720 275.733 C 182.202 276.470,182.219 276.667,181.799 276.667 C 181.507 276.667,181.187 276.247,181.089 275.733 C 180.991 275.220,180.955 274.800,181.009 274.800 C 181.064 274.800,181.383 275.220,181.720 275.733 M143.300 279.065 C 142.604 279.346,142.673 280.000,143.400 280.000 C 143.730 280.000,144.000 279.730,144.000 279.400 C 144.000 279.070,143.955 278.814,143.900 278.832 C 143.845 278.849,143.575 278.954,143.300 279.065 M58.979 355.635 C 58.876 355.800,59.244 356.291,59.796 356.726 C 60.798 357.514,61.067 358.000,60.500 358.000 C 60.335 358.000,59.721 357.400,59.136 356.667 C 58.439 355.792,58.260 355.333,58.619 355.333 C 58.919 355.333,59.081 355.469,58.979 355.635 M340.864 356.667 C 340.279 357.400,339.658 358.000,339.484 358.000 C 339.310 358.000,339.615 357.517,340.162 356.927 C 340.710 356.337,341.085 355.737,340.996 355.594 C 340.908 355.451,341.081 355.333,341.381 355.333 C 341.740 355.333,341.561 355.792,340.864 356.667 M332.400 365.600 C 332.400 365.820,332.130 366.000,331.800 366.000 C 331.470 366.000,331.245 366.225,331.300 366.500 C 331.355 366.775,331.040 367.008,330.600 367.019 C 330.160 367.029,329.843 367.247,329.895 367.504 C 329.953 367.786,329.728 367.871,329.330 367.718 C 328.886 367.547,328.764 367.618,328.958 367.932 C 329.117 368.189,329.057 368.400,328.824 368.400 C 328.591 368.400,328.400 368.226,328.400 368.014 C 328.400 367.562,330.040 366.584,330.549 366.731 C 330.741 366.787,330.796 366.567,330.671 366.241 C 330.522 365.852,330.744 365.592,331.322 365.479 C 331.805 365.386,332.245 365.284,332.300 365.254 C 332.355 365.225,332.400 365.380,332.400 365.600 M71.806 367.672 C 71.932 367.798,71.757 368.008,71.417 368.138 C 71.078 368.268,70.800 368.190,70.800 367.964 C 70.800 367.738,70.592 367.681,70.338 367.838 C 70.066 368.007,69.984 367.949,70.140 367.697 C 70.406 367.266,71.385 367.252,71.806 367.672 " stroke="none" fill="#fcfcfc" fill-rule="evenodd"></path><path id="path1" d="M273.487 26.070 C 273.115 26.300,273.119 26.479,273.503 26.863 C 273.880 27.240,274.000 27.244,274.000 26.880 C 274.000 26.616,274.259 26.400,274.576 26.400 C 274.893 26.400,275.257 26.231,275.385 26.024 C 275.652 25.592,274.205 25.626,273.487 26.070 M310.478 26.671 C 310.872 26.775,311.063 27.091,310.935 27.425 C 310.800 27.778,310.963 28.000,311.357 28.000 C 311.711 28.000,312.000 27.856,312.000 27.680 C 312.000 27.127,311.066 26.398,310.420 26.446 C 309.922 26.484,309.934 26.528,310.478 26.671 M260.699 33.377 C 260.315 33.658,260.000 34.025,260.000 34.193 C 260.000 34.361,260.225 34.311,260.500 34.083 C 260.775 33.855,261.135 33.653,261.300 33.634 C 261.465 33.615,261.615 33.495,261.633 33.367 C 261.703 32.880,261.375 32.883,260.699 33.377 M187.257 33.556 C 186.879 33.796,186.849 33.983,187.157 34.174 C 187.401 34.324,187.600 34.270,187.600 34.053 C 187.600 33.836,187.915 33.576,188.300 33.476 C 188.796 33.346,188.825 33.281,188.400 33.253 C 188.070 33.230,187.556 33.367,187.257 33.556 M211.700 33.476 C 212.085 33.576,212.400 33.836,212.400 34.053 C 212.400 34.270,212.599 34.324,212.843 34.174 C 213.382 33.840,212.507 33.192,211.600 33.253 C 211.175 33.281,211.204 33.346,211.700 33.476 M179.796 37.207 C 179.658 37.430,179.332 37.491,179.072 37.342 C 178.813 37.194,178.733 37.219,178.897 37.399 C 179.060 37.579,178.993 37.968,178.748 38.263 C 178.412 38.668,178.437 38.799,178.851 38.797 C 179.153 38.795,179.608 38.345,179.862 37.797 C 180.321 36.808,180.278 36.426,179.796 37.207 M220.101 37.439 C 220.486 37.893,220.681 38.385,220.534 38.532 C 220.387 38.680,220.589 38.800,220.982 38.800 C 221.536 38.800,221.597 38.678,221.252 38.263 C 221.007 37.968,220.940 37.563,221.103 37.363 C 221.267 37.163,221.237 37.133,221.037 37.297 C 220.837 37.460,220.387 37.373,220.037 37.103 C 219.560 36.737,219.576 36.821,220.101 37.439 M256.484 38.615 C 256.201 38.937,256.021 39.214,256.084 39.231 C 257.269 39.544,257.600 39.442,257.600 38.765 C 257.600 37.860,257.198 37.806,256.484 38.615 M326.824 42.400 C 326.824 43.542,326.899 43.671,327.232 43.100 C 327.509 42.625,327.509 42.175,327.232 41.700 C 326.899 41.129,326.824 41.258,326.824 42.400 M168.038 44.555 C 167.710 44.949,167.693 45.211,167.983 45.390 C 168.216 45.533,168.517 45.362,168.652 45.008 C 168.990 44.128,168.619 43.854,168.038 44.555 M231.200 44.527 C 231.200 45.274,231.852 45.762,232.168 45.252 C 232.291 45.053,232.123 44.668,231.796 44.396 C 231.311 43.994,231.200 44.019,231.200 44.527 M164.221 46.135 C 163.819 46.429,163.590 46.924,163.713 47.235 C 163.878 47.651,163.945 47.616,163.968 47.100 C 163.986 46.715,164.180 46.377,164.400 46.350 C 164.620 46.323,164.965 46.278,165.167 46.250 C 165.368 46.223,165.668 46.065,165.833 45.900 C 166.356 45.377,164.985 45.577,164.221 46.135 M234.167 45.900 C 234.332 46.065,234.632 46.223,234.833 46.250 C 235.035 46.278,235.380 46.323,235.600 46.350 C 235.820 46.377,236.014 46.715,236.032 47.100 C 236.055 47.616,236.122 47.651,236.287 47.235 C 236.531 46.616,235.394 45.600,234.457 45.600 C 234.132 45.600,234.002 45.735,234.167 45.900 M162.224 47.013 C 161.796 47.336,161.616 47.613,161.824 47.628 C 162.031 47.644,161.840 47.811,161.400 48.000 C 160.712 48.296,160.768 48.348,161.800 48.372 C 162.806 48.395,163.009 48.238,163.058 47.400 C 163.089 46.850,163.089 46.406,163.058 46.413 C 163.026 46.420,162.651 46.690,162.224 47.013 M253.598 51.682 C 253.489 54.256,253.541 56.221,253.714 56.047 C 253.887 55.874,253.976 53.767,253.912 51.366 L 253.796 47.000 253.598 51.682 M149.200 55.049 C 149.200 55.580,149.309 55.608,149.800 55.200 C 150.130 54.926,150.400 54.634,150.400 54.551 C 150.400 54.468,150.130 54.400,149.800 54.400 C 149.470 54.400,149.200 54.692,149.200 55.049 M249.600 54.551 C 249.600 54.634,249.870 54.926,250.200 55.200 C 250.691 55.608,250.800 55.580,250.800 55.049 C 250.800 54.692,250.530 54.400,250.200 54.400 C 249.870 54.400,249.600 54.468,249.600 54.551 M122.800 69.607 C 122.470 69.816,122.380 70.003,122.600 70.022 C 122.820 70.041,122.640 70.211,122.200 70.400 C 121.673 70.627,121.604 70.751,122.000 70.766 C 122.850 70.797,123.725 70.172,123.549 69.659 C 123.451 69.373,123.195 69.356,122.800 69.607 M117.553 72.700 C 117.527 72.865,117.524 73.129,117.548 73.286 C 117.571 73.443,117.341 73.475,117.036 73.358 C 116.731 73.241,116.385 73.300,116.268 73.490 C 116.151 73.679,116.442 73.863,116.915 73.899 C 117.388 73.934,117.913 73.747,118.082 73.482 C 118.505 72.815,118.474 72.400,118.000 72.400 C 117.780 72.400,117.579 72.535,117.553 72.700 M111.417 76.772 C 111.144 77.214,111.775 77.692,112.144 77.322 C 112.525 76.942,112.454 76.400,112.024 76.400 C 111.817 76.400,111.544 76.568,111.417 76.772 M106.000 79.800 C 106.000 80.167,106.194 80.402,106.430 80.323 C 106.666 80.245,106.860 80.009,106.860 79.800 C 106.860 79.591,106.666 79.356,106.430 79.277 C 106.194 79.198,106.000 79.433,106.000 79.800 M102.800 81.400 C 102.250 81.714,101.980 81.972,102.200 81.972 C 102.420 81.972,103.050 81.714,103.600 81.400 C 104.150 81.086,104.420 80.828,104.200 80.828 C 103.980 80.828,103.350 81.086,102.800 81.400 M101.200 82.400 C 101.200 82.646,101.020 82.736,100.800 82.600 C 100.580 82.464,100.400 82.655,100.400 83.025 C 100.400 83.603,100.498 83.623,101.100 83.162 C 101.485 82.867,101.857 82.593,101.927 82.553 C 101.996 82.513,101.861 82.361,101.627 82.216 C 101.392 82.071,101.200 82.154,101.200 82.400 M75.120 97.280 C 75.493 97.653,75.707 97.653,76.080 97.280 C 76.453 96.907,76.347 96.800,75.600 96.800 C 74.853 96.800,74.747 96.907,75.120 97.280 M71.950 98.369 C 72.403 98.649,72.402 98.735,71.945 98.902 C 71.577 99.036,71.530 99.239,71.800 99.530 C 72.079 99.830,72.329 99.687,72.625 99.059 C 72.990 98.285,72.935 98.150,72.230 98.097 C 71.639 98.053,71.561 98.128,71.950 98.369 M67.194 101.833 C 67.190 102.366,67.091 102.447,66.870 102.100 C 66.623 101.711,66.381 101.740,65.776 102.230 C 65.349 102.576,65.233 102.740,65.518 102.595 C 65.802 102.450,66.282 102.536,66.584 102.787 C 67.151 103.257,67.968 101.835,67.437 101.303 C 67.306 101.173,67.197 101.412,67.194 101.833 M332.562 101.733 C 332.693 102.136,332.800 102.541,332.800 102.633 C 332.800 102.725,333.085 102.800,333.433 102.800 C 333.782 102.800,334.002 102.607,333.923 102.370 C 333.845 102.134,333.625 101.969,333.435 102.004 C 333.245 102.039,332.917 101.828,332.707 101.534 C 332.426 101.141,332.387 101.193,332.562 101.733 M61.200 105.224 C 61.200 105.457,61.022 105.537,60.805 105.403 C 60.588 105.269,60.003 105.551,59.505 106.029 L 58.600 106.899 59.531 106.419 C 60.043 106.154,60.701 106.030,60.992 106.142 C 61.290 106.256,61.610 106.007,61.723 105.572 C 61.834 105.148,61.762 104.800,61.563 104.800 C 61.363 104.800,61.200 104.991,61.200 105.224 M49.762 111.262 C 49.586 111.546,49.652 111.615,49.934 111.441 C 50.229 111.258,50.307 111.378,50.153 111.779 C 50.022 112.121,50.094 112.400,50.314 112.400 C 50.654 112.400,51.200 111.517,51.200 110.967 C 51.200 110.593,50.027 110.833,49.762 111.262 M349.303 111.508 C 349.344 112.055,349.652 112.300,350.298 112.300 C 350.812 112.300,351.181 112.276,351.117 112.246 C 351.053 112.216,350.605 111.859,350.122 111.453 C 349.264 110.733,349.245 110.734,349.303 111.508 M46.576 113.317 C 46.435 113.687,46.056 113.861,45.667 113.737 C 45.097 113.555,45.087 113.586,45.600 113.948 C 46.241 114.400,47.614 113.480,47.086 112.952 C 46.939 112.806,46.710 112.970,46.576 113.317 M352.813 113.051 C 352.790 113.845,353.884 114.516,354.229 113.919 C 354.393 113.634,354.382 113.532,354.204 113.694 C 354.025 113.855,353.642 113.675,353.352 113.294 C 353.063 112.912,352.820 112.803,352.813 113.051 M354.606 114.390 C 354.460 114.627,354.489 114.794,354.670 114.763 C 355.489 114.620,355.748 114.848,355.200 115.228 C 354.700 115.574,354.728 115.623,355.367 115.522 C 355.789 115.455,356.218 115.130,356.322 114.800 C 356.425 114.470,356.366 114.333,356.192 114.497 C 356.017 114.660,355.648 114.606,355.372 114.377 C 355.024 114.088,354.790 114.092,354.606 114.390 M43.600 114.864 C 43.600 115.023,43.780 115.264,44.000 115.400 C 44.220 115.536,44.400 115.446,44.400 115.200 C 44.400 114.954,44.568 114.856,44.772 114.983 C 44.977 115.109,45.257 115.031,45.394 114.809 C 45.542 114.571,45.225 114.440,44.622 114.490 C 44.060 114.536,43.600 114.705,43.600 114.864 M15.836 130.816 C 15.695 131.154,15.194 131.460,14.724 131.496 C 14.253 131.531,13.583 131.874,13.234 132.258 C 12.711 132.834,12.707 132.877,13.212 132.502 C 13.549 132.252,14.336 131.955,14.962 131.841 C 16.329 131.593,16.544 131.413,16.288 130.725 C 16.139 130.323,16.033 130.344,15.836 130.816 M383.613 130.900 C 383.606 131.285,383.735 131.613,383.900 131.630 C 385.100 131.749,386.232 132.087,386.769 132.486 C 387.333 132.906,387.336 132.888,386.800 132.310 C 386.470 131.954,385.840 131.604,385.400 131.531 C 384.960 131.459,384.381 131.130,384.113 130.800 C 383.687 130.275,383.624 130.288,383.613 130.900 M10.898 134.175 C 9.947 134.614,9.893 135.231,10.781 135.527 C 11.082 135.627,11.197 135.519,11.047 135.276 C 10.902 135.041,11.100 134.672,11.488 134.455 C 12.478 133.901,11.992 133.671,10.898 134.175 M388.000 133.995 C 388.000 134.171,388.281 134.422,388.625 134.554 C 388.969 134.686,389.124 134.999,388.970 135.249 C 388.801 135.522,388.901 135.633,389.219 135.527 C 390.131 135.223,390.034 134.619,388.997 134.138 C 388.448 133.883,388.000 133.819,388.000 133.995 M9.200 135.837 C 9.200 136.188,8.840 136.569,8.400 136.684 C 7.521 136.914,7.443 137.133,7.953 137.937 C 8.212 138.346,8.496 138.189,9.146 137.275 C 10.067 135.982,10.238 135.200,9.600 135.200 C 9.380 135.200,9.200 135.487,9.200 135.837 M390.000 135.638 C 390.000 136.593,391.694 138.495,392.047 137.937 C 392.556 137.134,392.472 136.800,391.763 136.800 C 391.412 136.800,391.031 136.440,390.916 136.000 C 390.696 135.160,390.000 134.885,390.000 135.638 M0.103 169.912 C 0.138 170.370,0.309 170.656,0.483 170.549 C 0.657 170.441,0.800 170.573,0.800 170.843 C 0.800 171.113,0.908 171.225,1.041 171.093 C 1.173 170.960,1.002 170.453,0.661 169.966 C 0.053 169.098,0.042 169.097,0.103 169.912 M399.263 170.047 C 398.884 170.655,398.857 171.017,399.167 171.327 C 399.409 171.569,399.613 171.592,399.630 171.380 C 399.646 171.171,399.735 170.595,399.827 170.100 C 400.036 168.982,399.934 168.973,399.263 170.047 M395.200 177.376 C 395.200 178.022,395.767 178.500,396.117 178.150 C 396.429 177.838,395.999 176.800,395.557 176.800 C 395.361 176.800,395.200 177.059,395.200 177.376 M50.105 187.489 C 49.753 188.235,49.757 188.372,50.124 188.083 C 50.386 187.876,50.807 187.638,51.061 187.554 C 51.402 187.440,51.398 187.287,51.042 186.960 C 50.684 186.632,50.446 186.766,50.105 187.489 M348.960 186.958 C 348.632 187.316,348.766 187.554,349.489 187.895 C 350.235 188.247,350.372 188.243,350.083 187.876 C 349.876 187.614,349.638 187.193,349.554 186.939 C 349.440 186.598,349.287 186.602,348.960 186.958 M17.382 189.570 C 17.505 189.769,17.379 190.023,17.102 190.134 C 16.826 190.246,17.005 190.351,17.500 190.368 C 18.527 190.404,18.709 189.804,17.779 189.447 C 17.438 189.316,17.259 189.372,17.382 189.570 M381.232 189.657 C 381.214 190.019,381.479 190.422,381.821 190.553 C 382.177 190.689,382.337 190.622,382.197 190.395 C 382.063 190.178,382.233 190.000,382.576 190.000 C 382.919 190.000,383.200 189.814,383.200 189.586 C 383.200 189.302,382.959 189.301,382.432 189.583 C 381.874 189.882,381.610 189.858,381.464 189.497 C 381.339 189.187,381.251 189.247,381.232 189.657 M45.799 190.001 C 45.663 190.222,45.151 190.303,44.662 190.180 C 43.971 190.006,43.760 190.139,43.712 190.778 C 43.676 191.247,43.891 191.600,44.212 191.600 C 44.550 191.600,44.682 191.358,44.543 190.995 C 44.385 190.583,44.495 190.462,44.891 190.614 C 45.211 190.736,45.703 190.558,45.985 190.218 C 46.267 189.878,46.397 189.600,46.273 189.600 C 46.149 189.600,45.936 189.781,45.799 190.001 M21.279 191.013 C 21.677 191.410,23.223 191.561,22.987 191.179 C 22.858 190.971,22.373 190.800,21.910 190.800 C 21.446 190.800,21.162 190.896,21.279 191.013 M24.200 192.000 C 24.336 192.220,24.707 192.400,25.024 192.400 C 25.341 192.400,25.600 192.220,25.600 192.000 C 25.600 191.780,25.229 191.600,24.776 191.600 C 24.323 191.600,24.064 191.780,24.200 192.000 M163.000 193.973 C 162.560 194.147,161.930 194.207,161.600 194.107 C 161.105 193.956,161.097 193.993,161.554 194.319 C 162.122 194.724,162.553 194.712,163.600 194.264 C 163.930 194.122,167.260 193.956,171.000 193.893 L 177.800 193.779 170.800 193.718 C 166.950 193.684,163.440 193.799,163.000 193.973 M179.030 194.390 C 179.271 194.631,179.873 194.644,180.610 194.424 C 181.786 194.073,181.781 194.068,180.220 194.034 C 179.195 194.012,178.777 194.137,179.030 194.390 M125.744 198.000 C 125.744 200.090,125.812 200.945,125.894 199.900 C 125.976 198.855,125.976 197.145,125.894 196.100 C 125.812 195.055,125.744 195.910,125.744 198.000 M126.292 202.242 C 126.131 202.402,126.000 202.809,126.000 203.147 C 126.000 203.597,126.118 203.642,126.445 203.315 C 126.690 203.070,126.821 202.663,126.737 202.410 C 126.652 202.157,126.452 202.081,126.292 202.242 M127.102 209.000 C 126.997 209.550,127.066 210.000,127.255 210.000 C 127.445 210.000,127.600 209.550,127.600 209.000 C 127.600 208.450,127.531 208.000,127.447 208.000 C 127.362 208.000,127.207 208.450,127.102 209.000 M129.594 217.318 L 129.789 219.800 129.917 217.643 C 129.988 216.456,129.900 215.340,129.723 215.161 C 129.545 214.983,129.487 215.954,129.594 217.318 M127.293 226.000 C 127.293 226.770,127.375 227.085,127.476 226.700 C 127.576 226.315,127.576 225.685,127.476 225.300 C 127.375 224.915,127.293 225.230,127.293 226.000 M127.293 237.200 C 127.293 237.970,127.375 238.285,127.476 237.900 C 127.576 237.515,127.576 236.885,127.476 236.500 C 127.375 236.115,127.293 236.430,127.293 237.200 M181.406 241.700 C 180.866 243.389,180.872 243.547,181.473 243.317 C 181.957 243.131,181.968 243.026,181.534 242.750 C 181.061 242.451,181.326 242.244,182.059 242.339 C 182.201 242.357,182.225 242.019,182.112 241.586 C 181.850 240.583,181.758 240.598,181.406 241.700 M194.910 249.044 C 195.232 249.365,197.889 249.444,198.192 249.141 C 198.298 249.035,197.538 248.905,196.503 248.851 C 195.467 248.798,194.751 248.884,194.910 249.044 M273.326 253.700 C 273.301 254.195,273.369 254.374,273.475 254.098 C 273.581 253.821,273.831 253.695,274.030 253.818 C 274.228 253.941,274.284 253.762,274.153 253.421 C 273.806 252.517,273.377 252.661,273.326 253.700 M191.358 259.000 C 191.358 262.080,191.421 263.287,191.497 261.682 C 191.573 260.078,191.573 257.558,191.496 256.082 C 191.419 254.607,191.357 255.920,191.358 259.000 M274.144 258.800 C 274.144 260.890,274.212 261.745,274.294 260.700 C 274.376 259.655,274.376 257.945,274.294 256.900 C 274.212 255.855,274.144 256.710,274.144 258.800 M229.500 265.897 C 231.095 265.973,233.705 265.973,235.300 265.897 C 236.895 265.821,235.590 265.759,232.400 265.759 C 229.210 265.759,227.905 265.821,229.500 265.897 M222.000 266.485 C 222.000 266.658,222.945 266.789,224.100 266.775 C 225.831 266.754,226.034 266.683,225.257 266.372 C 224.177 265.939,222.000 266.015,222.000 266.485 M239.600 266.400 C 240.391 266.911,242.800 266.911,242.800 266.400 C 242.800 266.180,241.945 266.003,240.900 266.006 C 239.526 266.011,239.166 266.120,239.600 266.400 M194.306 274.618 C 194.410 275.165,194.628 275.694,194.790 275.794 C 194.952 275.894,194.999 275.529,194.894 274.982 C 194.790 274.435,194.572 273.906,194.410 273.806 C 194.248 273.706,194.201 274.071,194.306 274.618 M270.800 274.600 C 270.526 274.930,270.459 275.203,270.651 275.206 C 270.843 275.209,270.730 275.403,270.400 275.637 C 269.867 276.014,269.867 276.043,270.400 275.897 C 270.730 275.807,271.003 275.568,271.006 275.367 C 271.009 275.165,271.155 274.775,271.330 274.500 C 271.772 273.804,271.403 273.873,270.800 274.600 M181.089 275.733 C 181.187 276.247,181.507 276.667,181.799 276.667 C 182.219 276.667,182.202 276.470,181.720 275.733 C 181.383 275.220,181.064 274.800,181.009 274.800 C 180.955 274.800,180.991 275.220,181.089 275.733 M143.416 278.597 C 142.764 279.129,142.314 279.640,142.416 279.732 C 142.517 279.824,143.140 279.382,143.800 278.750 C 145.257 277.355,145.041 277.269,143.416 278.597 M197.480 282.037 C 197.610 283.382,197.511 284.618,197.234 285.137 C 196.980 285.612,196.939 286.000,197.143 286.000 C 197.994 286.000,198.266 282.854,197.593 280.800 C 197.383 280.162,197.343 280.609,197.480 282.037 M184.101 284.200 C 184.105 285.080,184.187 285.393,184.283 284.895 C 184.379 284.398,184.375 283.678,184.275 283.295 C 184.175 282.913,184.096 283.320,184.101 284.200 M268.454 296.420 C 268.425 296.981,268.265 297.612,268.100 297.823 C 267.935 298.033,268.041 298.002,268.335 297.754 C 268.629 297.506,268.788 296.874,268.689 296.351 C 268.511 295.410,268.508 295.410,268.454 296.420 M129.693 303.200 C 129.693 303.970,129.775 304.285,129.876 303.900 C 129.976 303.515,129.976 302.885,129.876 302.500 C 129.775 302.115,129.693 302.430,129.693 303.200 M208.637 311.800 C 208.997 312.350,209.451 312.800,209.646 312.800 C 210.152 312.800,210.094 312.631,209.253 311.661 C 208.232 310.484,207.833 310.574,208.637 311.800 M254.752 314.887 C 254.937 315.998,254.993 316.055,255.119 315.254 C 255.201 314.733,255.103 314.143,254.901 313.941 C 254.679 313.719,254.621 314.093,254.752 314.887 M186.708 332.783 C 186.431 333.767,186.597 334.337,187.032 333.901 C 187.160 333.773,187.201 333.248,187.124 332.734 L 186.984 331.800 186.708 332.783 M185.720 338.400 C 185.720 339.610,185.795 340.105,185.887 339.500 C 185.978 338.895,185.978 337.905,185.887 337.300 C 185.795 336.695,185.720 337.190,185.720 338.400 M266.051 338.420 C 265.997 339.593,266.132 340.400,266.380 340.400 C 266.872 340.400,266.955 336.943,266.471 336.644 C 266.289 336.532,266.100 337.331,266.051 338.420 M185.300 341.883 C 184.669 343.242,184.574 360.987,185.200 360.600 C 185.447 360.447,185.600 356.920,185.600 351.350 C 185.600 345.909,185.764 342.041,186.014 341.574 C 186.242 341.148,186.287 340.801,186.114 340.803 C 185.941 340.805,185.575 341.291,185.300 341.883 M346.292 343.570 C 346.162 344.069,346.263 344.274,346.579 344.153 C 346.847 344.050,347.067 343.703,347.067 343.383 C 347.067 342.538,346.528 342.668,346.292 343.570 M52.832 344.109 C 52.849 344.599,52.954 344.774,53.066 344.498 C 53.177 344.221,53.425 344.092,53.617 344.210 C 53.808 344.329,53.864 344.690,53.740 345.013 C 53.616 345.336,53.693 345.600,53.911 345.600 C 54.817 345.600,54.693 344.080,53.752 343.651 C 52.902 343.264,52.803 343.312,52.832 344.109 M59.136 356.667 C 59.721 357.400,60.335 358.000,60.500 358.000 C 61.067 358.000,60.798 357.514,59.796 356.726 C 59.244 356.291,58.876 355.800,58.979 355.635 C 59.081 355.469,58.919 355.333,58.619 355.333 C 58.260 355.333,58.439 355.792,59.136 356.667 M340.996 355.594 C 341.085 355.737,340.710 356.337,340.162 356.927 C 339.615 357.517,339.310 358.000,339.484 358.000 C 339.658 358.000,340.279 357.400,340.864 356.667 C 341.561 355.792,341.740 355.333,341.381 355.333 C 341.081 355.333,340.908 355.451,340.996 355.594 M67.600 365.637 C 67.600 365.837,67.881 366.000,68.224 366.000 C 68.593 366.000,68.731 366.188,68.562 366.462 C 68.372 366.769,68.454 366.814,68.806 366.596 C 69.204 366.350,69.264 366.459,69.044 367.034 C 68.834 367.587,68.874 367.679,69.189 367.367 C 69.430 367.129,69.518 366.651,69.385 366.306 C 69.122 365.621,67.600 365.051,67.600 365.637 M331.322 365.479 C 330.744 365.592,330.522 365.852,330.671 366.241 C 330.796 366.567,330.741 366.787,330.549 366.731 C 330.040 366.584,328.400 367.562,328.400 368.014 C 328.400 368.226,328.591 368.400,328.824 368.400 C 329.057 368.400,329.117 368.189,328.958 367.932 C 328.764 367.618,328.886 367.547,329.330 367.718 C 329.728 367.871,329.953 367.786,329.895 367.504 C 329.843 367.247,330.160 367.029,330.600 367.019 C 331.040 367.008,331.355 366.775,331.300 366.500 C 331.245 366.225,331.470 366.000,331.800 366.000 C 332.130 366.000,332.400 365.820,332.400 365.600 C 332.400 365.380,332.355 365.225,332.300 365.254 C 332.245 365.284,331.805 365.386,331.322 365.479 M70.140 367.697 C 69.984 367.949,70.066 368.007,70.338 367.838 C 70.592 367.681,70.800 367.738,70.800 367.964 C 70.800 368.190,71.078 368.268,71.417 368.138 C 71.757 368.008,71.932 367.798,71.806 367.672 C 71.385 367.252,70.406 367.266,70.140 367.697 M76.217 370.772 C 75.930 371.236,76.666 371.730,77.175 371.415 C 77.382 371.288,77.717 371.480,77.920 371.843 C 78.172 372.293,78.378 372.359,78.568 372.051 C 78.722 371.803,78.637 371.600,78.381 371.600 C 78.124 371.600,78.018 371.330,78.145 371.000 C 78.400 370.334,77.790 370.170,77.400 370.800 C 77.264 371.020,76.973 371.200,76.753 371.200 C 76.533 371.200,76.464 371.020,76.600 370.800 C 76.736 370.580,76.757 370.400,76.647 370.400 C 76.537 370.400,76.344 370.568,76.217 370.772 " stroke="none" fill="#f4f4f4" fill-rule="evenodd"></path><path id="path2" d="" stroke="none" fill="#fc100f8" fill-rule="evenodd"></path><path id="path3" d="" stroke="none" fill="#fc100f8" fill-rule="evenodd"></path><path id="path4" d="" stroke="none" fill="#fc100f8" fill-rule="evenodd"></path></g></svg>