<svg xmlns="http://www.w3.org/2000/svg" xmlns:xlink="http://www.w3.org/1999/xlink" id="svg" width="400" height="400" viewBox="0, 0, 400,400"><g id="svgg"><path id="path0" d="M183.106 39.700 L 183.000 52.600 170.100 52.706 L 157.200 52.811 157.200 65.526 C 157.200 74.881,157.073 78.367,156.720 78.720 C 156.367 79.073,152.881 79.200,143.526 79.200 L 130.811 79.200 130.706 92.100 L 130.600 105.000 117.906 105.106 L 105.211 105.211 105.106 117.906 L 105.000 130.600 92.100 130.706 L 79.200 130.811 79.200 143.526 C 79.200 152.881,79.073 156.367,78.720 156.720 C 78.367 157.073,74.881 157.200,65.526 157.200 L 52.811 157.200 52.706 170.100 L 52.600 183.000 39.700 183.106 L 26.800 183.211 26.800 195.806 L 26.800 208.400 39.800 208.400 L 52.800 208.400 52.800 290.800 L 52.800 373.200 86.800 373.200 L 120.800 373.200 120.800 295.243 C 120.800 224.525,120.859 217.263,121.433 217.043 C 122.260 216.725,277.740 216.725,278.567 217.043 C 279.141 217.263,279.200 224.525,279.200 295.243 L 279.200 373.200 313.200 373.200 L 347.200 373.200 347.200 290.800 L 347.200 208.400 360.200 208.400 L 373.200 208.400 373.200 195.806 L 373.200 183.211 360.300 183.106 L 347.400 183.000 347.294 170.100 L 347.189 157.200 334.474 157.200 C 325.119 157.200,321.633 157.073,321.280 156.720 C 320.911 156.351,320.800 141.324,320.800 91.520 L 320.800 26.800 308.600 26.800 L 296.400 26.800 296.400 65.792 L 296.400 104.785 295.500 105.004 C 295.005 105.125,288.930 105.173,282.000 105.112 L 269.400 105.000 269.294 92.100 L 269.189 79.200 256.474 79.200 C 247.119 79.200,243.633 79.073,243.280 78.720 C 242.927 78.367,242.800 74.881,242.800 65.526 L 242.800 52.811 229.900 52.706 L 217.000 52.600 216.894 39.700 L 216.789 26.800 200.000 26.800 L 183.211 26.800 183.106 39.700 " stroke="none" fill="#fcfcfc" fill-rule="evenodd"></path><path id="path1" d="" stroke="none" fill="#100f0fc" fill-rule="evenodd"></path></g></svg>