<svg xmlns="http://www.w3.org/2000/svg" xmlns:xlink="http://www.w3.org/1999/xlink" id="svg" width="400" height="400" viewBox="0, 0, 400,400"><g id="svgg"><path id="path0" d="M128.832 0.561 C 128.475 0.992,128.487 1.169,128.883 1.323 C 129.167 1.434,128.862 1.497,128.205 1.462 C 127.316 1.416,126.907 1.630,126.611 2.297 C 126.326 2.939,125.994 3.125,125.446 2.951 C 124.864 2.767,124.737 2.859,124.919 3.333 C 125.094 3.789,124.983 3.892,124.510 3.710 C 124.030 3.526,123.926 3.630,124.110 4.110 C 124.286 4.567,124.188 4.693,123.780 4.537 C 123.461 4.414,123.200 4.514,123.200 4.757 C 123.200 5.001,122.922 5.200,122.582 5.200 C 121.770 5.200,119.888 7.095,120.199 7.599 C 120.342 7.830,120.159 7.882,119.751 7.726 C 119.229 7.525,119.122 7.619,119.310 8.110 C 119.494 8.590,119.390 8.694,118.910 8.510 C 118.419 8.322,118.325 8.429,118.526 8.951 C 118.690 9.378,118.633 9.544,118.378 9.386 C 117.929 9.109,111.200 15.477,111.200 16.179 C 111.200 16.415,110.750 17.093,110.200 17.687 C 109.650 18.280,109.200 19.003,109.200 19.294 C 109.200 19.585,108.840 20.083,108.400 20.400 C 107.960 20.717,107.600 21.231,107.600 21.541 C 107.600 21.852,107.223 22.433,106.763 22.832 C 106.303 23.231,106.044 23.748,106.189 23.982 C 106.333 24.215,106.169 24.514,105.825 24.646 C 105.481 24.778,105.200 25.226,105.200 25.643 C 105.200 26.059,105.001 26.400,104.757 26.400 C 104.514 26.400,104.412 26.655,104.532 26.967 C 104.652 27.279,104.491 27.633,104.175 27.754 C 103.859 27.876,103.600 28.261,103.600 28.611 C 103.600 28.990,103.787 29.132,104.062 28.962 C 104.341 28.789,104.415 28.852,104.249 29.121 C 104.098 29.365,103.710 29.464,103.387 29.340 C 102.679 29.068,102.615 29.655,103.280 30.320 C 103.653 30.693,103.555 30.800,102.836 30.800 C 102.022 30.800,101.931 30.961,102.071 32.155 C 102.193 33.207,102.101 33.460,101.655 33.289 C 101.209 33.118,101.140 33.305,101.345 34.124 C 101.556 34.963,101.486 35.131,101.005 34.947 C 100.545 34.770,100.400 35.012,100.400 35.957 C 100.400 36.641,100.220 37.200,100.000 37.200 C 99.780 37.200,99.600 37.884,99.600 38.720 C 99.600 39.556,99.780 40.456,100.000 40.720 C 100.291 41.069,100.269 41.091,99.920 40.800 C 99.067 40.090,98.800 40.368,98.800 41.967 C 98.800 42.845,98.580 43.622,98.300 43.736 C 97.924 43.889,97.948 44.044,98.400 44.363 C 98.807 44.651,98.839 44.790,98.500 44.794 C 97.838 44.802,97.838 47.659,98.500 48.401 C 98.925 48.878,98.896 48.882,98.300 48.432 C 97.688 47.969,97.467 48.073,97.520 48.800 C 97.528 48.910,95.440 48.962,92.882 48.915 C 90.145 48.865,88.128 48.993,87.984 49.226 C 87.849 49.444,86.711 49.649,85.454 49.682 C 83.970 49.721,83.228 49.897,83.339 50.184 C 83.446 50.464,82.902 50.622,81.854 50.613 C 80.787 50.605,80.233 50.769,80.292 51.075 C 80.349 51.373,79.905 51.522,79.092 51.475 C 78.296 51.429,77.834 51.578,77.888 51.863 C 77.945 52.166,77.546 52.259,76.732 52.130 C 75.716 51.970,75.534 52.051,75.734 52.572 C 75.930 53.084,75.784 53.161,74.989 52.962 C 74.233 52.772,74.000 52.870,74.000 53.380 C 74.000 53.768,73.814 53.932,73.555 53.772 C 73.311 53.621,72.953 53.746,72.761 54.049 C 72.509 54.448,72.411 54.462,72.406 54.100 C 72.403 53.825,72.220 53.600,72.000 53.600 C 71.780 53.600,71.600 53.853,71.600 54.163 C 71.600 54.543,71.319 54.652,70.733 54.498 C 70.074 54.326,69.921 54.416,70.096 54.873 C 70.275 55.339,70.095 55.431,69.298 55.278 C 68.478 55.122,68.319 55.212,68.514 55.720 C 68.686 56.167,68.585 56.292,68.180 56.137 C 67.831 56.003,67.600 56.155,67.600 56.520 C 67.600 56.944,67.340 57.057,66.733 56.898 C 66.065 56.724,65.920 56.814,66.103 57.290 C 66.277 57.746,66.142 57.858,65.593 57.714 C 65.131 57.593,64.447 57.916,63.804 58.559 C 63.232 59.132,62.600 59.600,62.401 59.600 C 61.894 59.600,48.800 72.681,48.800 73.187 C 48.800 73.414,48.950 73.600,49.133 73.600 C 49.317 73.600,49.467 73.867,49.467 74.194 C 49.467 74.637,49.334 74.677,48.944 74.354 C 48.371 73.878,47.200 74.730,47.200 75.625 C 47.200 75.889,46.875 76.397,46.478 76.753 C 45.836 77.328,45.125 78.677,42.607 84.097 C 42.225 84.920,42.019 85.872,42.149 86.212 C 42.285 86.565,42.132 86.928,41.793 87.058 C 41.467 87.183,41.200 87.626,41.200 88.043 C 41.200 88.459,41.025 88.800,40.812 88.800 C 40.599 88.800,40.449 89.446,40.478 90.236 C 40.508 91.025,40.315 91.805,40.049 91.970 C 39.756 92.151,39.650 92.751,39.781 93.492 C 39.933 94.357,39.821 94.783,39.398 94.945 C 39.069 95.072,38.800 95.371,38.800 95.611 C 38.800 95.851,39.011 95.917,39.268 95.758 C 39.599 95.554,39.642 95.693,39.417 96.234 C 39.241 96.655,39.009 97.405,38.902 97.900 C 38.795 98.395,38.548 98.800,38.353 98.800 C 38.159 98.800,38.000 99.081,38.000 99.424 C 38.000 99.806,38.193 99.938,38.500 99.765 C 38.900 99.539,38.900 99.590,38.500 100.021 C 38.171 100.376,38.000 101.898,38.000 104.480 C 38.000 106.858,37.841 108.400,37.595 108.400 C 37.345 108.400,37.206 110.006,37.232 112.600 C 37.254 114.910,37.437 116.800,37.637 116.800 C 37.836 116.800,38.000 118.522,38.000 120.626 C 38.000 122.731,38.198 124.822,38.440 125.275 C 38.760 125.872,38.760 126.022,38.440 125.825 C 38.192 125.671,38.000 125.825,38.000 126.176 C 38.000 126.519,38.160 126.800,38.355 126.800 C 38.551 126.800,38.830 127.435,38.976 128.211 C 39.146 129.120,39.411 129.537,39.720 129.381 C 39.984 129.249,39.885 129.399,39.500 129.714 C 38.633 130.425,38.608 130.800,39.427 130.800 C 39.941 130.800,40.015 131.154,39.836 132.761 C 39.673 134.225,39.759 134.776,40.178 134.936 C 40.531 135.072,40.653 135.474,40.509 136.026 C 40.360 136.596,40.504 137.027,40.924 137.261 C 41.277 137.459,41.471 137.872,41.353 138.178 C 41.235 138.485,41.424 139.169,41.771 139.700 C 42.118 140.230,42.306 140.761,42.187 140.879 C 41.834 141.232,43.629 145.629,44.026 145.384 C 44.227 145.260,44.283 145.440,44.151 145.784 C 43.766 146.786,44.758 147.724,45.553 147.112 C 45.982 146.782,45.946 146.912,45.446 147.499 C 44.794 148.262,44.775 148.415,45.301 148.617 C 45.678 148.762,45.832 149.155,45.704 149.645 C 45.582 150.114,45.821 150.799,46.289 151.319 C 46.724 151.804,47.196 152.526,47.338 152.925 C 47.479 153.324,47.759 153.549,47.960 153.425 C 48.161 153.301,48.236 153.539,48.128 153.954 C 48.019 154.370,48.126 154.831,48.365 154.978 C 48.604 155.126,48.803 155.012,48.806 154.724 C 48.811 154.343,48.918 154.364,49.200 154.800 C 49.706 155.583,49.706 156.113,49.200 155.800 C 48.980 155.664,48.800 155.743,48.800 155.976 C 48.800 156.209,48.980 156.400,49.200 156.400 C 49.420 156.400,49.600 156.683,49.600 157.029 C 49.600 157.854,50.600 158.833,51.270 158.664 C 51.562 158.591,51.665 158.607,51.500 158.699 C 51.052 158.949,51.138 160.400,51.600 160.400 C 51.820 160.400,52.000 160.760,52.000 161.200 C 52.000 161.640,52.180 162.000,52.400 162.000 C 52.620 162.000,52.800 162.379,52.800 162.843 C 52.800 163.407,52.988 163.613,53.369 163.467 C 53.795 163.304,53.891 163.506,53.752 164.274 C 53.607 165.077,53.701 165.247,54.188 165.060 C 54.689 164.868,54.758 165.027,54.545 165.876 C 54.336 166.711,54.405 166.884,54.878 166.702 C 55.332 166.528,55.431 166.705,55.291 167.437 C 55.162 168.113,55.288 168.400,55.716 168.400 C 56.128 168.400,56.257 168.659,56.116 169.200 C 55.890 170.062,56.347 170.244,57.120 169.600 C 57.469 169.309,57.491 169.331,57.200 169.680 C 56.601 170.399,56.718 171.600,57.387 171.600 C 57.744 171.600,57.885 171.835,57.746 172.197 C 57.615 172.537,57.792 172.899,58.156 173.039 C 58.508 173.173,58.698 173.441,58.579 173.634 C 58.460 173.826,58.590 174.392,58.866 174.892 C 59.143 175.391,59.336 175.922,59.295 176.071 C 59.158 176.563,60.830 180.000,61.206 180.000 C 61.409 180.000,61.471 180.271,61.343 180.603 C 61.104 181.228,62.138 183.791,62.793 184.196 C 62.998 184.322,63.067 184.681,62.947 184.994 C 62.644 185.783,63.198 186.651,63.594 186.009 C 63.805 185.669,63.960 185.719,64.140 186.187 C 64.286 186.570,64.227 186.740,63.995 186.597 C 63.383 186.219,63.529 187.443,64.159 187.966 C 64.479 188.232,64.622 188.793,64.494 189.282 C 64.329 189.914,64.421 190.077,64.850 189.913 C 65.302 189.740,65.394 189.989,65.271 191.045 C 65.156 192.029,65.270 192.400,65.687 192.400 C 66.104 192.400,66.211 192.746,66.076 193.664 C 65.933 194.639,66.020 194.878,66.460 194.709 C 66.903 194.539,66.992 194.804,66.863 195.908 C 66.728 197.071,66.811 197.281,67.329 197.083 C 67.769 196.914,67.892 197.017,67.735 197.425 C 67.611 197.747,67.756 198.312,68.055 198.682 C 68.431 199.145,68.445 199.260,68.100 199.053 C 67.768 198.854,67.600 199.015,67.600 199.534 C 67.600 199.963,67.874 200.420,68.210 200.548 C 68.650 200.717,68.744 201.082,68.550 201.857 C 68.326 202.750,68.393 202.888,68.943 202.677 C 69.515 202.458,69.571 202.640,69.353 204.005 C 69.159 205.215,69.242 205.641,69.706 205.819 C 70.085 205.965,70.232 206.356,70.098 206.867 C 69.981 207.315,70.079 207.802,70.317 207.948 C 70.554 208.095,70.809 208.662,70.884 209.207 C 70.959 209.753,71.179 210.453,71.372 210.762 C 71.613 211.147,71.578 211.234,71.262 211.038 C 70.988 210.869,70.800 211.007,70.800 211.376 C 70.800 211.719,71.089 212.000,71.443 212.000 C 71.872 212.000,72.003 212.216,71.836 212.651 C 71.699 213.009,71.814 213.583,72.093 213.927 C 72.489 214.417,72.491 214.488,72.100 214.253 C 71.785 214.064,71.600 214.184,71.600 214.576 C 71.600 214.919,71.743 215.200,71.917 215.200 C 72.092 215.200,72.425 215.914,72.658 216.787 C 72.891 217.660,72.929 218.279,72.741 218.164 C 72.553 218.048,72.400 218.253,72.400 218.619 C 72.400 218.998,72.622 219.200,72.914 219.088 C 73.289 218.945,73.385 219.261,73.270 220.251 C 73.179 221.029,73.344 221.898,73.656 222.282 C 74.031 222.745,74.045 222.860,73.700 222.653 C 73.392 222.468,73.200 222.575,73.200 222.934 C 73.200 223.253,73.493 223.627,73.851 223.764 C 74.362 223.960,74.460 224.394,74.303 225.779 C 74.188 226.806,74.292 227.748,74.552 228.031 C 74.887 228.395,74.874 228.446,74.500 228.235 C 74.193 228.062,74.000 228.194,74.000 228.576 C 74.000 228.919,74.297 229.200,74.660 229.200 C 75.243 229.200,75.290 229.617,75.066 232.769 C 74.911 234.965,74.963 236.388,75.203 236.469 C 75.454 236.553,75.630 265.638,75.697 318.200 L 75.800 399.800 81.369 399.912 C 85.542 399.995,87.029 399.895,87.300 399.512 C 87.586 399.106,87.703 399.103,87.864 399.500 C 88.162 400.236,311.838 400.236,312.136 399.500 C 312.297 399.103,312.414 399.106,312.700 399.512 C 312.971 399.895,314.458 399.995,318.631 399.912 L 324.200 399.800 324.303 318.200 C 324.370 265.638,324.546 236.553,324.797 236.469 C 325.037 236.388,325.089 234.965,324.934 232.769 C 324.710 229.617,324.757 229.200,325.340 229.200 C 325.703 229.200,326.000 228.919,326.000 228.576 C 326.000 228.194,325.807 228.062,325.500 228.235 C 325.126 228.446,325.113 228.395,325.448 228.031 C 325.708 227.748,325.812 226.806,325.697 225.779 C 325.540 224.394,325.638 223.960,326.149 223.764 C 326.507 223.627,326.800 223.253,326.800 222.934 C 326.800 222.575,326.608 222.468,326.300 222.653 C 325.955 222.860,325.969 222.745,326.344 222.282 C 326.656 221.898,326.821 221.029,326.730 220.251 C 326.615 219.261,326.711 218.945,327.086 219.088 C 327.378 219.200,327.600 218.998,327.600 218.619 C 327.600 218.253,327.447 218.048,327.259 218.164 C 327.071 218.279,327.109 217.660,327.342 216.787 C 327.575 215.914,327.908 215.200,328.083 215.200 C 328.257 215.200,328.400 214.919,328.400 214.576 C 328.400 214.194,328.207 214.062,327.900 214.235 C 327.510 214.455,327.505 214.403,327.878 214.000 C 328.150 213.707,328.258 212.989,328.128 212.342 C 327.949 211.447,328.046 211.200,328.574 211.200 C 329.099 211.200,329.206 210.933,329.058 209.995 C 328.941 209.253,329.090 208.567,329.445 208.212 C 329.803 207.854,329.964 207.103,329.869 206.236 C 329.772 205.359,329.879 204.868,330.157 204.919 C 330.404 204.964,330.600 204.446,330.599 203.751 C 330.599 202.941,330.768 202.566,331.080 202.686 C 331.419 202.816,331.530 202.343,331.455 201.077 C 331.371 199.652,331.468 199.328,331.926 199.504 C 332.378 199.677,332.466 199.419,332.337 198.308 C 332.208 197.208,332.298 196.939,332.737 197.108 C 333.175 197.276,333.265 197.007,333.137 195.908 C 333.008 194.804,333.097 194.539,333.540 194.709 C 333.980 194.878,334.067 194.639,333.924 193.664 C 333.789 192.746,333.896 192.400,334.313 192.400 C 334.730 192.400,334.844 192.029,334.729 191.045 C 334.606 189.989,334.698 189.740,335.150 189.913 C 335.579 190.077,335.671 189.914,335.506 189.282 C 335.378 188.793,335.521 188.232,335.841 187.966 C 336.471 187.443,336.617 186.219,336.005 186.597 C 335.773 186.740,335.714 186.570,335.860 186.187 C 336.057 185.675,336.181 185.646,336.434 186.055 C 336.686 186.463,336.814 186.430,337.014 185.908 C 337.155 185.540,337.162 185.062,337.029 184.847 C 336.896 184.631,336.965 184.345,337.183 184.211 C 337.857 183.794,338.901 181.239,338.657 180.603 C 338.529 180.271,338.591 180.000,338.794 180.000 C 339.170 180.000,340.842 176.563,340.705 176.071 C 340.664 175.922,340.857 175.391,341.134 174.892 C 341.410 174.392,341.540 173.826,341.421 173.634 C 341.302 173.441,341.471 173.182,341.796 173.057 C 342.131 172.928,342.285 172.565,342.150 172.215 C 341.998 171.819,342.143 171.600,342.557 171.600 C 343.272 171.600,343.420 170.424,342.800 169.680 C 342.509 169.331,342.531 169.309,342.880 169.600 C 343.653 170.244,344.110 170.062,343.884 169.200 C 343.743 168.659,343.872 168.400,344.284 168.400 C 344.712 168.400,344.838 168.113,344.709 167.437 C 344.569 166.705,344.668 166.528,345.122 166.702 C 345.595 166.884,345.664 166.711,345.455 165.876 C 345.242 165.027,345.311 164.868,345.812 165.060 C 346.299 165.247,346.393 165.077,346.248 164.274 C 346.109 163.506,346.205 163.304,346.631 163.467 C 347.012 163.613,347.200 163.407,347.200 162.843 C 347.200 162.379,347.380 162.000,347.600 162.000 C 347.820 162.000,348.000 161.640,348.000 161.200 C 348.000 160.760,348.180 160.400,348.400 160.400 C 348.862 160.400,348.948 158.949,348.500 158.699 C 348.335 158.607,348.438 158.591,348.730 158.664 C 349.400 158.833,350.400 157.854,350.400 157.029 C 350.400 156.683,350.580 156.400,350.800 156.400 C 351.020 156.400,351.200 156.209,351.200 155.976 C 351.200 155.743,351.020 155.664,350.800 155.800 C 350.294 156.113,350.294 155.583,350.800 154.800 C 351.082 154.364,351.189 154.343,351.194 154.724 C 351.197 155.012,351.396 155.126,351.635 154.978 C 351.874 154.831,351.981 154.370,351.872 153.954 C 351.764 153.539,351.838 153.300,352.038 153.424 C 352.238 153.547,352.570 153.205,352.776 152.663 C 352.982 152.121,353.330 151.567,353.550 151.431 C 354.120 151.079,355.200 148.808,355.200 147.962 C 355.200 147.569,355.396 147.126,355.635 146.978 C 355.874 146.831,355.981 146.370,355.872 145.954 C 355.764 145.539,355.824 145.291,356.007 145.404 C 356.382 145.636,358.147 141.214,357.813 140.879 C 357.694 140.761,357.882 140.230,358.229 139.700 C 358.576 139.169,358.760 138.473,358.637 138.153 C 358.514 137.832,358.674 137.470,358.993 137.347 C 359.362 137.206,359.554 136.617,359.520 135.727 C 359.491 134.958,359.681 134.197,359.941 134.037 C 360.227 133.860,360.339 133.165,360.225 132.272 C 360.083 131.164,360.181 130.800,360.618 130.800 C 361.394 130.800,361.352 130.413,360.500 129.714 C 360.115 129.399,360.016 129.249,360.280 129.381 C 360.589 129.537,360.854 129.120,361.024 128.211 C 361.170 127.435,361.449 126.800,361.645 126.800 C 361.840 126.800,362.000 126.519,362.000 126.176 C 362.000 125.825,361.808 125.671,361.560 125.825 C 361.240 126.022,361.240 125.872,361.560 125.275 C 362.222 124.038,362.166 100.739,361.500 100.021 C 361.100 99.590,361.100 99.539,361.500 99.765 C 361.807 99.938,362.000 99.806,362.000 99.424 C 362.000 99.081,361.841 98.800,361.647 98.800 C 361.452 98.800,361.205 98.395,361.098 97.900 C 360.991 97.405,360.759 96.655,360.583 96.234 C 360.358 95.693,360.401 95.554,360.732 95.758 C 360.989 95.917,361.200 95.851,361.200 95.611 C 361.200 95.371,360.934 95.073,360.608 94.948 C 360.188 94.787,360.077 94.342,360.225 93.410 C 360.374 92.476,360.263 92.033,359.839 91.870 C 359.452 91.722,359.310 91.287,359.430 90.621 C 359.532 90.060,359.432 89.600,359.208 89.600 C 358.984 89.600,358.800 89.079,358.800 88.443 C 358.800 87.789,358.542 87.187,358.207 87.058 C 357.868 86.928,357.715 86.565,357.851 86.212 C 357.981 85.872,357.814 85.010,357.479 84.297 C 357.143 83.584,356.411 81.993,355.852 80.763 C 355.292 79.533,354.557 78.296,354.217 78.014 C 353.878 77.733,353.600 77.242,353.600 76.924 C 353.600 76.528,353.348 76.426,352.800 76.600 C 352.199 76.791,352.002 76.673,352.006 76.127 C 352.011 75.511,352.072 75.492,352.400 76.000 C 352.727 76.506,352.789 76.484,352.794 75.860 C 352.797 75.454,352.260 74.617,351.600 74.000 C 350.940 73.383,350.400 72.675,350.400 72.426 C 350.400 71.893,338.130 59.600,337.598 59.600 C 337.399 59.600,336.768 59.132,336.196 58.559 C 335.553 57.916,334.869 57.593,334.407 57.714 C 333.858 57.858,333.723 57.746,333.897 57.290 C 334.080 56.814,333.935 56.724,333.267 56.898 C 332.660 57.057,332.400 56.944,332.400 56.520 C 332.400 56.155,332.169 56.003,331.820 56.137 C 331.415 56.292,331.314 56.167,331.486 55.720 C 331.681 55.212,331.522 55.122,330.702 55.278 C 329.905 55.431,329.725 55.339,329.904 54.873 C 330.079 54.416,329.926 54.326,329.267 54.498 C 328.681 54.652,328.400 54.543,328.400 54.163 C 328.400 53.853,328.220 53.600,328.000 53.600 C 327.780 53.600,327.597 53.825,327.594 54.100 C 327.589 54.462,327.491 54.448,327.239 54.049 C 327.047 53.746,326.689 53.621,326.445 53.772 C 326.186 53.932,326.000 53.768,326.000 53.380 C 326.000 52.870,325.767 52.772,325.011 52.962 C 324.216 53.161,324.070 53.084,324.266 52.572 C 324.466 52.051,324.284 51.970,323.268 52.130 C 322.454 52.259,322.055 52.166,322.112 51.863 C 322.166 51.578,321.704 51.429,320.908 51.475 C 320.095 51.522,319.651 51.373,319.708 51.075 C 319.767 50.769,319.213 50.605,318.146 50.613 C 317.031 50.622,316.551 50.472,316.674 50.152 C 316.805 49.810,316.030 49.695,313.878 49.739 C 311.642 49.785,310.949 49.676,311.093 49.300 C 311.199 49.025,310.996 48.800,310.643 48.800 C 310.289 48.800,309.997 49.025,309.994 49.300 C 309.989 49.681,309.915 49.686,309.684 49.322 C 309.476 48.995,308.156 48.868,305.527 48.922 C 303.409 48.965,301.761 48.862,301.865 48.693 C 301.970 48.525,302.223 48.491,302.428 48.617 C 302.632 48.744,302.800 48.577,302.800 48.247 C 302.800 47.917,302.620 47.536,302.400 47.400 C 302.180 47.264,302.000 46.173,302.000 44.976 C 302.000 42.743,301.776 42.429,300.799 43.300 C 300.335 43.714,300.315 43.697,300.682 43.200 C 301.211 42.483,301.274 39.600,300.760 39.600 C 300.562 39.600,300.400 39.060,300.400 38.400 C 300.400 37.740,300.220 37.200,300.000 37.200 C 299.780 37.200,299.600 36.660,299.600 36.000 C 299.600 35.180,299.403 34.800,298.976 34.800 C 298.602 34.800,298.468 34.613,298.642 34.332 C 298.836 34.017,298.713 33.948,298.266 34.119 C 297.900 34.260,297.600 34.201,297.600 33.987 C 297.600 33.774,297.870 33.600,298.200 33.600 C 298.530 33.600,298.800 33.330,298.800 33.000 C 298.800 32.670,298.620 32.400,298.400 32.400 C 298.180 32.400,298.000 32.021,298.000 31.557 C 298.000 30.947,297.822 30.783,297.356 30.962 C 296.829 31.164,296.759 31.017,296.975 30.157 C 297.147 29.473,297.033 28.878,296.648 28.453 C 296.323 28.094,296.028 27.669,295.993 27.509 C 295.696 26.149,295.455 25.600,295.153 25.600 C 294.959 25.600,294.800 25.221,294.800 24.757 C 294.800 24.186,294.614 23.986,294.220 24.137 C 293.833 24.285,293.715 24.167,293.863 23.780 C 293.986 23.461,293.886 23.200,293.643 23.200 C 293.399 23.200,293.200 22.917,293.200 22.571 C 293.200 21.872,292.272 20.800,291.666 20.800 C 291.451 20.800,291.369 20.440,291.484 20.000 C 291.599 19.560,291.514 19.200,291.295 19.200 C 291.076 19.200,290.683 18.683,290.421 18.051 C 289.806 16.567,282.174 9.045,281.626 9.384 C 281.366 9.544,281.309 9.381,281.474 8.951 C 281.675 8.429,281.581 8.322,281.090 8.510 C 280.610 8.694,280.506 8.590,280.690 8.110 C 280.878 7.619,280.771 7.525,280.249 7.726 C 279.844 7.881,279.658 7.830,279.799 7.602 C 280.116 7.089,277.304 4.289,276.791 4.606 C 276.573 4.740,276.282 4.559,276.146 4.202 C 276.009 3.846,275.641 3.652,275.328 3.772 C 275.010 3.894,274.867 3.815,275.005 3.592 C 275.253 3.191,274.317 2.000,273.754 2.000 C 273.588 2.000,273.021 1.595,272.494 1.100 C 271.422 0.092,243.200 -0.596,243.200 0.385 C 243.200 0.635,242.004 0.800,240.200 0.800 C 238.467 0.800,237.200 0.631,237.200 0.400 C 237.200 -0.036,210.952 -0.187,209.833 0.243 C 209.485 0.376,209.200 0.726,209.200 1.019 C 209.200 1.313,208.992 1.681,208.738 1.838 C 208.452 2.015,208.385 1.948,208.562 1.662 C 208.731 1.388,208.593 1.200,208.224 1.200 C 207.881 1.200,207.600 1.380,207.600 1.600 C 207.600 1.820,207.221 2.000,206.757 2.000 C 206.160 2.000,205.984 2.181,206.153 2.621 C 206.290 2.979,206.223 3.138,205.992 2.995 C 205.446 2.658,204.283 3.887,204.625 4.440 C 204.811 4.741,204.626 4.799,204.057 4.618 C 203.185 4.341,200.948 6.069,201.346 6.712 C 201.450 6.881,200.844 7.018,200.000 7.018 C 199.156 7.018,198.549 6.882,198.652 6.715 C 198.884 6.340,196.190 3.600,195.590 3.600 C 195.349 3.600,195.256 3.768,195.383 3.972 C 195.509 4.177,195.426 4.461,195.197 4.602 C 194.968 4.744,194.806 4.711,194.837 4.530 C 195.024 3.454,194.746 2.735,194.220 2.937 C 193.833 3.085,193.715 2.967,193.863 2.580 C 194.005 2.210,193.833 2.000,193.390 2.000 C 193.007 2.000,192.343 1.595,191.914 1.100 C 191.037 0.088,162.800 -0.609,162.800 0.381 C 162.800 0.636,161.624 0.800,159.800 0.800 C 158.067 0.800,156.800 0.631,156.800 0.400 C 156.800 -0.290,129.408 -0.132,128.832 0.561 M240.238 40.246 C 240.036 40.772,240.211 40.860,241.174 40.719 C 241.825 40.623,242.279 40.672,242.182 40.829 C 242.086 40.985,242.635 41.230,243.404 41.374 C 244.172 41.518,244.800 41.829,244.800 42.065 C 244.800 42.302,245.230 42.411,245.763 42.309 C 246.495 42.169,246.672 42.268,246.498 42.722 C 246.315 43.199,246.491 43.264,247.368 43.044 C 248.083 42.864,248.378 42.912,248.212 43.181 C 247.899 43.686,249.865 45.731,250.366 45.421 C 250.564 45.299,250.630 45.564,250.513 46.010 C 250.377 46.532,250.604 47.083,251.151 47.557 C 251.618 47.962,252.000 48.588,252.000 48.947 C 252.000 49.306,252.180 49.600,252.400 49.600 C 252.620 49.600,252.800 49.883,252.800 50.229 C 252.800 50.574,253.054 51.111,253.364 51.422 C 253.675 51.732,253.840 52.324,253.732 52.738 C 253.614 53.190,253.785 53.585,254.161 53.730 C 254.527 53.870,254.688 54.227,254.549 54.590 C 254.418 54.931,254.513 55.455,254.761 55.753 C 255.009 56.052,255.233 57.220,255.258 58.348 C 255.284 59.477,255.461 60.400,255.652 60.400 C 255.844 60.400,256.000 61.120,256.000 62.000 C 256.000 62.880,255.837 63.600,255.638 63.600 C 255.438 63.600,255.303 64.747,255.338 66.149 C 255.387 68.152,255.283 68.654,254.856 68.490 C 254.430 68.326,254.363 68.641,254.544 69.940 C 254.726 71.239,254.649 71.600,254.188 71.600 C 253.476 71.600,253.392 72.387,254.100 72.432 C 254.500 72.457,254.500 72.504,254.100 72.665 C 253.825 72.776,253.600 73.122,253.600 73.433 C 253.600 73.745,253.399 74.000,253.153 74.000 C 252.904 74.000,252.799 74.353,252.916 74.800 C 253.054 75.327,252.928 75.600,252.549 75.600 C 251.926 75.600,251.947 76.953,252.587 78.000 C 252.897 78.508,252.855 78.520,252.312 78.081 C 251.645 77.540,250.937 78.051,251.374 78.758 C 251.496 78.955,251.315 79.224,250.972 79.355 C 250.630 79.487,250.452 79.761,250.578 79.965 C 250.704 80.169,250.356 80.691,249.804 81.126 C 249.252 81.560,248.800 82.138,248.800 82.411 C 248.800 82.683,248.434 83.224,247.986 83.612 C 247.539 84.000,247.224 84.471,247.286 84.659 C 247.438 85.115,244.794 88.000,244.224 88.000 C 243.978 88.000,243.517 88.360,243.200 88.800 C 242.883 89.240,242.322 89.600,241.954 89.600 C 241.587 89.600,241.183 89.867,241.058 90.193 C 240.917 90.560,240.571 90.687,240.151 90.526 C 239.609 90.318,239.517 90.438,239.695 91.119 C 239.924 91.995,239.302 92.166,238.670 91.400 C 238.455 91.141,238.268 91.176,238.136 91.500 C 238.025 91.775,237.678 92.000,237.367 92.000 C 237.055 92.000,236.786 92.225,236.768 92.500 C 236.751 92.775,236.661 92.820,236.568 92.600 C 236.476 92.380,235.029 92.205,233.353 92.210 C 231.244 92.217,230.246 92.063,230.110 91.710 C 230.003 91.430,229.574 91.200,229.157 91.200 C 228.741 91.200,228.400 90.999,228.400 90.753 C 228.400 90.504,228.047 90.399,227.600 90.516 C 227.160 90.631,226.800 90.549,226.800 90.334 C 226.800 89.665,225.696 88.800,224.841 88.800 C 224.257 88.800,224.095 88.618,224.271 88.160 C 224.406 87.807,224.338 87.402,224.119 87.260 C 223.900 87.117,223.134 85.762,222.416 84.249 C 221.480 82.276,221.013 81.654,220.767 82.049 C 220.558 82.383,220.514 82.029,220.655 81.151 C 220.796 80.276,220.712 79.593,220.444 79.427 C 220.200 79.276,220.000 78.548,220.000 77.810 C 220.000 77.071,219.821 76.407,219.602 76.333 C 219.371 76.256,219.162 73.895,219.102 70.698 C 219.046 67.671,219.060 65.377,219.134 65.600 C 219.416 66.451,220.000 65.491,220.000 64.176 C 220.000 63.419,220.180 62.800,220.400 62.800 C 220.620 62.800,220.800 62.339,220.800 61.776 C 220.800 61.149,220.634 60.856,220.370 61.018 C 220.134 61.164,220.178 60.905,220.467 60.442 C 220.756 59.979,221.129 59.600,221.296 59.600 C 221.463 59.600,221.600 59.251,221.600 58.824 C 221.600 58.397,221.780 57.936,222.000 57.800 C 222.220 57.664,222.400 57.197,222.400 56.762 C 222.400 56.328,222.685 55.537,223.033 55.006 C 223.419 54.416,223.565 53.680,223.407 53.120 C 223.249 52.558,223.282 52.391,223.492 52.692 C 223.751 53.061,224.006 52.985,224.518 52.387 C 225.233 51.553,225.410 50.584,224.900 50.299 C 224.735 50.207,224.838 50.191,225.130 50.264 C 225.992 50.481,226.887 49.304,226.584 48.351 C 226.405 47.784,226.460 47.590,226.751 47.770 C 227.258 48.083,230.141 45.352,229.832 44.851 C 229.718 44.667,230.098 44.606,230.678 44.717 C 231.521 44.878,231.682 44.791,231.486 44.280 C 231.314 43.833,231.415 43.708,231.820 43.863 C 232.169 43.997,232.400 43.845,232.400 43.480 C 232.400 43.056,232.660 42.943,233.267 43.102 C 233.926 43.274,234.079 43.184,233.904 42.727 C 233.728 42.268,233.902 42.169,234.637 42.309 C 235.166 42.410,235.600 42.316,235.600 42.099 C 235.600 41.883,236.365 41.603,237.300 41.479 C 238.350 41.339,239.229 40.942,239.600 40.441 C 240.330 39.454,240.570 39.381,240.238 40.246 M163.431 41.888 C 163.755 42.212,164.286 42.376,164.610 42.251 C 164.977 42.111,165.200 42.265,165.200 42.659 C 165.200 43.113,165.473 43.241,166.163 43.109 C 166.876 42.973,167.070 43.073,166.909 43.492 C 166.660 44.141,167.975 44.067,168.538 43.400 C 168.733 43.168,168.778 43.301,168.645 43.714 C 168.388 44.511,173.338 49.809,173.973 49.417 C 174.167 49.297,174.230 49.564,174.113 50.010 C 173.977 50.532,174.204 51.083,174.751 51.557 C 175.218 51.962,175.600 52.462,175.600 52.667 C 175.600 53.472,176.628 55.194,177.110 55.197 C 177.844 55.201,178.566 57.250,177.964 57.622 C 177.708 57.781,177.633 58.130,177.799 58.398 C 178.032 58.776,178.173 58.768,178.423 58.363 C 178.600 58.076,178.644 58.597,178.520 59.521 C 178.308 61.103,178.862 61.918,179.322 60.700 C 179.426 60.425,179.417 60.963,179.303 61.896 C 179.186 62.851,179.286 63.822,179.531 64.117 C 179.771 64.406,180.000 65.943,180.040 67.532 C 180.080 69.122,180.268 70.518,180.456 70.635 C 180.906 70.913,180.902 72.400,180.452 72.400 C 180.261 72.400,180.079 73.518,180.048 74.884 C 180.018 76.250,179.814 77.546,179.596 77.764 C 179.378 77.982,179.203 78.529,179.206 78.980 C 179.211 79.656,179.280 79.695,179.600 79.200 C 179.813 78.870,179.991 78.789,179.994 79.020 C 179.997 79.251,179.837 79.611,179.638 79.820 C 178.786 80.714,177.572 83.351,177.773 83.873 C 177.893 84.186,177.834 84.344,177.642 84.226 C 177.450 84.107,177.070 84.548,176.798 85.205 C 176.526 85.862,176.126 86.400,175.909 86.400 C 175.692 86.400,175.614 86.661,175.737 86.980 C 175.885 87.367,175.767 87.485,175.380 87.337 C 175.016 87.197,174.800 87.363,174.800 87.781 C 174.800 88.147,174.950 88.355,175.133 88.241 C 175.317 88.128,175.467 88.267,175.467 88.549 C 175.467 88.869,175.122 88.998,174.557 88.890 C 173.646 88.716,171.600 90.295,171.600 91.172 C 171.600 91.412,171.106 91.481,170.400 91.340 C 169.461 91.152,169.200 91.241,169.200 91.750 C 169.200 92.296,168.687 92.400,166.000 92.400 C 163.320 92.400,162.800 92.295,162.800 91.753 C 162.800 91.302,162.557 91.170,161.993 91.318 C 161.549 91.434,160.929 91.272,160.614 90.957 C 160.300 90.643,159.873 90.434,159.665 90.493 C 159.457 90.552,158.897 90.156,158.421 89.613 C 157.698 88.789,157.493 88.723,157.184 89.213 C 156.964 89.560,156.810 89.608,156.806 89.331 C 156.797 88.601,154.772 86.370,154.354 86.629 C 154.148 86.756,154.030 86.688,154.090 86.479 C 154.151 86.270,153.750 85.580,153.200 84.947 C 152.650 84.313,151.941 83.294,151.625 82.683 C 151.309 82.072,150.846 81.650,150.598 81.746 C 150.343 81.843,150.157 81.543,150.173 81.060 C 150.188 80.587,149.981 80.243,149.714 80.295 C 149.429 80.351,149.325 80.139,149.463 79.780 C 149.838 78.802,148.425 77.484,147.662 78.101 C 147.150 78.517,147.108 78.500,147.413 78.000 C 148.043 76.970,148.075 75.600,147.469 75.600 C 147.092 75.600,146.972 75.281,147.099 74.615 C 147.209 74.043,147.033 73.375,146.679 73.022 C 146.319 72.661,146.164 72.058,146.300 71.540 C 146.488 70.822,146.399 70.715,145.808 70.942 C 145.144 71.196,145.109 71.014,145.355 68.609 C 145.528 66.916,145.478 66.000,145.211 66.000 C 144.957 66.000,144.800 64.472,144.800 62.000 C 144.800 59.309,144.947 58.000,145.249 58.000 C 145.542 58.000,145.507 57.764,145.149 57.323 C 144.827 56.927,144.797 56.765,145.076 56.932 C 145.424 57.141,145.491 56.837,145.324 55.809 C 145.136 54.649,145.218 54.400,145.791 54.400 C 146.335 54.400,146.432 54.180,146.234 53.391 C 146.056 52.684,146.163 52.312,146.590 52.148 C 146.926 52.020,147.200 51.460,147.200 50.904 C 147.200 50.348,147.582 49.562,148.049 49.157 C 148.596 48.683,148.823 48.132,148.687 47.610 C 148.570 47.164,148.634 46.897,148.828 47.017 C 149.277 47.295,153.707 42.897,153.430 42.449 C 153.317 42.265,153.669 42.201,154.212 42.304 C 154.755 42.408,155.200 42.305,155.200 42.076 C 155.200 41.130,162.506 40.963,163.431 41.888 M304.400 96.783 C 304.400 96.994,305.011 97.118,305.758 97.059 C 306.810 96.976,307.066 97.084,306.893 97.535 C 306.721 97.982,306.916 98.071,307.722 97.917 C 308.302 97.806,308.686 97.861,308.576 98.039 C 308.466 98.216,309.237 99.284,310.288 100.412 C 311.340 101.539,312.157 102.537,312.105 102.628 C 312.053 102.719,312.368 103.431,312.805 104.209 C 313.242 104.988,313.600 105.960,313.600 106.369 C 313.600 106.779,313.867 107.217,314.194 107.342 C 314.653 107.519,314.732 107.984,314.540 109.385 C 314.383 110.530,314.444 111.200,314.705 111.200 C 314.933 111.200,315.183 111.995,315.260 112.967 C 315.342 113.999,315.234 114.706,315.000 114.667 C 314.760 114.627,314.649 115.521,314.723 116.900 C 314.822 118.767,314.728 119.200,314.223 119.200 C 313.797 119.200,313.600 119.581,313.600 120.400 C 313.600 121.060,313.396 121.600,313.147 121.600 C 312.849 121.600,312.765 122.179,312.903 123.300 C 313.017 124.235,313.026 124.775,312.922 124.500 C 312.582 123.600,311.980 123.976,312.161 124.976 C 312.292 125.697,312.190 125.894,311.769 125.733 C 311.369 125.579,311.200 125.816,311.200 126.529 C 311.200 127.086,310.898 127.844,310.530 128.213 C 310.002 128.741,309.956 129.037,310.311 129.606 C 310.662 130.168,310.638 130.377,310.202 130.544 C 309.814 130.693,309.717 130.560,309.888 130.114 C 310.062 129.662,309.984 129.562,309.630 129.781 C 309.352 129.953,309.206 130.517,309.305 131.035 C 309.403 131.552,309.329 131.880,309.139 131.762 C 308.728 131.508,307.600 132.553,307.600 133.189 C 307.600 133.434,306.150 135.068,304.379 136.821 C 302.607 138.574,301.257 140.169,301.379 140.367 C 301.501 140.564,301.247 140.633,300.815 140.520 C 299.965 140.297,298.605 141.361,298.975 141.960 C 299.099 142.161,298.874 142.240,298.474 142.135 C 298.073 142.030,296.876 142.407,295.813 142.972 C 294.751 143.538,293.584 144.000,293.220 144.000 C 292.857 144.000,292.370 144.190,292.138 144.422 C 291.905 144.655,290.924 144.880,289.958 144.922 C 288.689 144.978,288.233 145.156,288.320 145.559 C 288.414 146.000,288.227 145.979,287.434 145.459 C 286.881 145.096,285.999 144.800,285.476 144.800 C 284.952 144.800,283.958 144.518,283.267 144.173 C 282.576 143.829,281.800 143.676,281.543 143.835 C 281.263 144.008,281.184 143.950,281.344 143.691 C 281.491 143.452,281.249 143.143,280.806 143.002 C 280.363 142.861,280.000 142.559,280.000 142.330 C 280.000 142.102,279.721 142.022,279.379 142.153 C 279.021 142.290,278.862 142.223,279.005 141.992 C 279.306 141.505,278.142 140.265,277.661 140.562 C 277.471 140.680,277.404 140.311,277.513 139.743 C 277.689 138.821,277.608 138.737,276.755 138.952 C 276.230 139.084,276.025 139.089,276.300 138.963 C 276.893 138.691,276.978 137.200,276.400 137.200 C 276.180 137.200,276.000 136.840,276.000 136.400 C 276.000 135.960,275.820 135.600,275.600 135.600 C 275.380 135.600,275.200 135.060,275.200 134.400 C 275.200 133.740,275.020 133.200,274.800 133.200 C 274.283 133.200,274.264 124.932,274.780 124.612 C 274.989 124.483,275.080 123.752,274.983 122.989 C 274.847 121.931,274.951 121.600,275.418 121.600 C 275.898 121.600,275.989 121.254,275.837 120.000 C 275.691 118.783,275.783 118.400,276.222 118.400 C 276.540 118.400,276.800 118.040,276.800 117.600 C 276.800 117.160,276.980 116.800,277.200 116.800 C 277.420 116.800,277.600 116.440,277.600 116.000 C 277.600 115.560,277.780 115.200,278.000 115.200 C 278.220 115.200,278.400 114.919,278.400 114.576 C 278.400 114.207,278.212 114.069,277.938 114.238 C 277.652 114.415,277.585 114.348,277.762 114.062 C 277.919 113.808,278.307 113.600,278.624 113.600 C 278.941 113.600,279.200 113.240,279.200 112.800 C 279.200 112.360,279.401 112.000,279.647 112.000 C 279.906 112.000,280.014 111.586,279.904 111.012 C 279.801 110.469,279.871 110.120,280.061 110.238 C 280.479 110.496,281.600 109.442,281.600 108.789 C 281.600 108.532,282.140 107.817,282.800 107.200 C 283.460 106.583,284.000 105.909,284.000 105.702 C 284.000 105.494,284.356 105.002,284.791 104.609 C 285.225 104.215,285.495 103.754,285.390 103.584 C 285.285 103.414,285.514 103.357,285.899 103.457 C 286.346 103.574,287.174 103.052,288.181 102.020 C 289.051 101.129,289.996 100.400,290.281 100.400 C 290.567 100.400,290.800 100.141,290.800 99.824 C 290.800 99.507,291.008 99.119,291.262 98.962 C 291.548 98.785,291.615 98.852,291.438 99.138 C 291.269 99.412,291.407 99.600,291.776 99.600 C 292.119 99.600,292.400 99.420,292.400 99.200 C 292.400 98.980,292.760 98.800,293.200 98.800 C 293.640 98.800,294.000 98.620,294.000 98.400 C 294.000 98.180,294.379 98.000,294.843 98.000 C 295.353 98.000,295.610 97.803,295.494 97.500 C 295.353 97.135,295.773 97.038,297.051 97.140 C 298.142 97.228,298.800 97.115,298.800 96.840 C 298.800 96.562,299.829 96.400,301.600 96.400 C 303.140 96.400,304.400 96.572,304.400 96.783 M101.200 97.632 C 101.200 98.177,102.957 98.079,103.565 97.500 C 103.994 97.091,104.037 97.175,103.799 97.959 C 103.546 98.794,103.618 98.889,104.354 98.696 C 104.919 98.548,105.200 98.662,105.200 99.037 C 105.200 99.347,105.380 99.600,105.600 99.600 C 105.820 99.600,106.000 99.420,106.000 99.200 C 106.000 98.980,106.180 98.800,106.400 98.800 C 106.620 98.800,106.779 98.935,106.753 99.100 C 106.613 99.984,106.884 100.400,107.600 100.400 C 108.040 100.400,108.400 100.580,108.400 100.800 C 108.400 101.020,108.682 101.200,109.026 101.200 C 109.370 101.200,110.106 101.740,110.661 102.400 C 111.217 103.060,111.880 103.605,112.136 103.610 C 112.725 103.623,116.000 106.693,116.000 107.233 C 116.000 107.962,117.943 109.597,118.537 109.369 C 118.857 109.246,119.241 109.342,119.389 109.583 C 119.538 109.823,119.432 109.970,119.153 109.910 C 118.875 109.849,118.574 110.141,118.483 110.558 C 118.368 111.091,118.491 111.251,118.897 111.095 C 119.329 110.929,119.428 111.117,119.291 111.837 C 119.185 112.389,119.297 112.800,119.553 112.800 C 119.799 112.800,120.000 113.083,120.000 113.429 C 120.000 114.382,121.123 115.315,121.910 115.015 C 122.463 114.805,122.501 114.852,122.100 115.256 C 121.409 115.953,121.463 117.600,122.176 117.600 C 122.493 117.600,122.881 117.808,123.038 118.062 C 123.215 118.348,123.148 118.415,122.862 118.238 C 122.583 118.066,122.400 118.217,122.400 118.619 C 122.400 119.032,122.617 119.202,122.971 119.066 C 123.424 118.893,123.494 119.142,123.311 120.270 C 123.095 121.599,123.139 121.673,123.975 121.408 C 124.797 121.147,124.830 121.196,124.393 122.013 C 124.014 122.721,124.028 122.972,124.459 123.245 C 124.858 123.498,124.869 123.589,124.500 123.594 C 124.225 123.597,124.000 123.780,124.000 124.000 C 124.000 124.220,124.258 124.400,124.574 124.400 C 125.028 124.400,125.175 125.267,125.274 128.537 C 125.393 132.434,125.356 132.663,124.642 132.475 C 124.001 132.307,123.916 132.446,124.092 133.370 C 124.229 134.085,124.111 134.536,123.751 134.674 C 123.448 134.791,123.200 135.406,123.200 136.043 C 123.200 136.679,122.999 137.200,122.753 137.200 C 122.504 137.200,122.399 137.553,122.516 138.000 C 122.631 138.440,122.554 138.800,122.345 138.800 C 122.136 138.800,120.998 139.775,119.816 140.967 C 118.634 142.158,117.577 143.044,117.469 142.935 C 117.360 142.826,116.760 143.033,116.135 143.394 C 115.511 143.755,115.324 143.952,115.721 143.830 C 116.117 143.709,116.342 143.770,116.221 143.967 C 116.099 144.163,115.282 144.228,114.404 144.110 C 113.398 143.975,112.578 144.086,112.187 144.411 C 111.717 144.801,111.454 144.814,111.103 144.463 C 110.848 144.208,110.057 144.000,109.344 144.000 C 108.631 144.000,107.936 143.820,107.800 143.600 C 107.664 143.380,107.283 143.200,106.953 143.200 C 106.593 143.200,106.470 143.389,106.645 143.673 C 106.805 143.932,106.304 143.662,105.531 143.073 C 104.757 142.483,103.866 142.000,103.551 142.000 C 103.235 142.000,102.717 141.640,102.400 141.200 C 102.083 140.760,101.543 140.400,101.200 140.400 C 100.857 140.400,100.317 140.040,100.000 139.600 C 99.683 139.160,99.179 138.800,98.880 138.800 C 98.582 138.800,97.646 138.080,96.800 137.200 C 95.954 136.320,95.074 135.600,94.844 135.600 C 94.614 135.600,94.526 135.338,94.649 135.018 C 94.903 134.354,92.983 132.239,92.434 132.579 C 92.236 132.701,92.170 132.436,92.287 131.990 C 92.423 131.468,92.196 130.917,91.649 130.443 C 91.182 130.038,90.800 129.539,90.800 129.334 C 90.800 129.129,90.170 127.732,89.400 126.228 C 88.630 124.725,88.000 123.145,88.000 122.719 C 88.000 121.794,87.035 120.721,86.561 121.119 C 86.377 121.274,86.467 121.085,86.762 120.700 C 87.143 120.202,87.176 119.854,86.876 119.492 C 86.645 119.213,86.398 118.178,86.328 117.192 C 86.244 116.022,86.026 115.435,85.700 115.500 C 85.341 115.572,85.200 114.867,85.200 113.000 C 85.200 110.865,85.316 110.400,85.851 110.400 C 86.394 110.400,86.470 110.052,86.308 108.300 C 86.202 107.145,86.194 106.425,86.291 106.700 C 86.643 107.700,87.287 107.172,87.118 106.021 C 87.023 105.373,87.093 104.934,87.273 105.045 C 87.454 105.157,87.762 104.825,87.959 104.308 C 88.156 103.790,88.588 103.142,88.919 102.867 C 89.250 102.592,89.633 101.925,89.768 101.384 C 89.904 100.843,90.192 100.400,90.408 100.400 C 90.623 100.400,90.800 100.141,90.800 99.824 C 90.800 99.507,91.008 99.119,91.262 98.962 C 91.548 98.785,91.615 98.852,91.438 99.138 C 91.269 99.412,91.407 99.600,91.776 99.600 C 92.119 99.600,92.400 99.420,92.400 99.200 C 92.400 98.980,92.760 98.800,93.200 98.800 C 93.640 98.800,94.000 98.620,94.000 98.400 C 94.000 98.180,94.379 98.000,94.843 98.000 C 95.353 98.000,95.609 97.803,95.493 97.500 C 95.346 97.121,96.012 97.032,98.250 97.132 C 99.872 97.204,101.200 97.429,101.200 97.632 M202.800 127.165 C 202.800 127.366,204.013 127.540,205.495 127.551 C 206.979 127.563,208.253 127.758,208.329 127.986 C 208.405 128.214,208.732 128.400,209.057 128.400 C 209.382 128.400,209.546 128.237,209.423 128.037 C 209.300 127.838,209.604 127.777,210.099 127.901 C 210.595 128.026,211.144 128.369,211.320 128.664 C 211.496 128.959,212.081 129.200,212.620 129.200 C 213.159 129.200,213.600 129.401,213.600 129.647 C 213.600 129.896,213.953 130.001,214.400 129.884 C 214.941 129.743,215.200 129.872,215.200 130.284 C 215.200 130.712,215.487 130.838,216.163 130.709 C 216.895 130.569,217.072 130.669,216.898 131.122 C 216.721 131.584,216.906 131.673,217.722 131.517 C 218.302 131.406,218.682 131.468,218.566 131.654 C 218.311 132.068,220.179 134.000,220.835 134.000 C 221.094 134.000,221.633 134.377,222.032 134.837 C 222.455 135.324,222.959 135.549,223.241 135.375 C 223.539 135.191,223.620 135.245,223.452 135.516 C 223.127 136.042,230.303 143.307,230.829 142.982 C 231.028 142.859,231.084 143.038,230.953 143.379 C 230.780 143.828,230.976 144.009,231.657 144.032 C 232.176 144.049,232.375 144.154,232.100 144.265 C 231.308 144.584,231.508 145.193,232.800 146.400 C 233.460 147.017,234.000 147.821,234.000 148.187 C 234.000 148.678,234.237 148.795,234.900 148.631 C 235.395 148.508,235.575 148.511,235.300 148.637 C 234.598 148.959,234.673 149.734,235.380 149.463 C 235.788 149.307,235.886 149.433,235.710 149.890 C 235.531 150.356,235.632 150.473,236.068 150.306 C 236.540 150.125,236.631 150.302,236.478 151.102 C 236.317 151.944,236.405 152.084,236.962 151.870 C 237.367 151.714,237.542 151.770,237.395 152.008 C 237.040 152.582,238.312 153.719,239.010 153.451 C 239.371 153.313,239.600 153.462,239.600 153.836 C 239.600 154.196,239.790 154.330,240.062 154.162 C 240.355 153.981,240.415 154.053,240.226 154.358 C 239.998 154.726,239.797 154.729,239.364 154.370 C 239.001 154.069,238.800 154.052,238.800 154.322 C 238.800 154.553,239.244 155.091,239.786 155.518 C 240.329 155.945,240.668 156.399,240.539 156.528 C 240.252 156.815,241.387 158.000,241.948 158.000 C 242.171 158.000,242.481 158.208,242.638 158.462 C 242.815 158.748,242.748 158.815,242.462 158.638 C 241.892 158.286,241.852 159.057,242.406 159.717 C 243.179 160.638,244.800 163.237,244.800 163.556 C 244.800 163.732,245.160 164.202,245.600 164.600 C 246.040 164.998,246.400 165.530,246.400 165.781 C 246.400 166.032,247.120 166.941,248.000 167.800 C 248.880 168.659,249.600 169.562,249.600 169.806 C 249.600 170.051,250.140 170.768,250.800 171.400 C 251.460 172.032,252.000 172.702,252.000 172.888 C 252.000 173.468,254.793 176.051,255.169 175.819 C 255.365 175.698,255.430 175.964,255.313 176.410 C 255.177 176.932,255.404 177.483,255.951 177.957 C 256.418 178.362,256.800 179.007,256.800 179.390 C 256.800 179.833,257.010 180.005,257.380 179.863 C 257.788 179.707,257.886 179.833,257.710 180.290 C 257.526 180.770,257.630 180.874,258.110 180.690 C 258.583 180.508,258.694 180.611,258.519 181.067 C 258.335 181.546,258.464 181.633,259.073 181.440 C 259.619 181.267,259.867 181.372,259.867 181.777 C 259.867 182.100,259.717 182.272,259.533 182.159 C 259.350 182.045,259.200 182.233,259.200 182.576 C 259.200 182.919,259.345 183.200,259.523 183.200 C 259.701 183.200,260.176 183.965,260.578 184.900 C 261.605 187.283,262.363 188.062,263.367 187.764 C 264.197 187.518,264.197 187.520,263.400 188.184 C 262.835 188.655,262.747 188.911,263.100 189.058 C 263.375 189.173,263.600 189.612,263.600 190.033 C 263.600 190.455,263.780 190.800,264.000 190.800 C 264.220 190.800,264.400 191.160,264.400 191.600 C 264.400 192.337,264.839 192.601,265.768 192.425 C 265.970 192.386,265.904 192.634,265.621 192.975 C 265.189 193.495,265.259 193.730,266.053 194.428 C 266.574 194.886,266.775 195.147,266.500 195.007 C 266.176 194.842,266.000 195.057,266.000 195.619 C 266.000 196.238,266.177 196.417,266.621 196.247 C 267.011 196.098,267.141 196.173,266.970 196.449 C 266.820 196.691,266.946 197.047,267.249 197.239 C 267.648 197.491,267.662 197.589,267.300 197.594 C 267.025 197.597,266.800 197.870,266.800 198.200 C 266.800 198.530,266.980 198.800,267.200 198.800 C 267.420 198.800,267.600 199.700,267.600 200.800 C 267.600 201.900,267.780 202.800,268.000 202.800 C 268.614 202.800,268.523 212.517,267.903 213.137 C 267.508 213.532,267.528 213.710,268.003 214.011 C 268.402 214.262,268.434 214.390,268.100 214.394 C 267.825 214.397,267.600 214.760,267.600 215.200 C 267.600 215.640,267.420 216.000,267.200 216.000 C 266.980 216.000,266.800 216.360,266.800 216.800 C 266.800 217.240,266.643 217.600,266.450 217.600 C 266.257 217.600,266.100 218.054,266.100 218.610 C 266.100 219.165,265.693 219.972,265.196 220.404 C 264.407 221.088,264.362 221.275,264.846 221.871 C 265.151 222.246,265.198 222.433,264.952 222.285 C 264.444 221.981,262.800 223.253,262.800 223.951 C 262.800 224.491,260.672 226.794,260.157 226.813 C 259.544 226.834,257.543 228.784,257.765 229.143 C 257.881 229.331,257.531 229.399,256.988 229.296 C 256.287 229.162,256.000 229.284,256.000 229.716 C 256.000 230.128,255.741 230.257,255.200 230.116 C 254.666 229.976,254.400 230.104,254.400 230.498 C 254.400 230.919,254.100 231.032,253.357 230.890 C 252.727 230.769,252.183 230.903,251.982 231.229 C 251.780 231.556,251.073 231.728,250.176 231.668 C 249.109 231.596,248.757 231.711,248.901 232.084 C 249.052 232.476,248.575 232.567,246.909 232.461 C 245.660 232.381,244.530 232.510,244.279 232.761 C 243.703 233.337,228.400 233.375,228.400 232.800 C 228.400 232.559,226.760 232.400,224.280 232.400 C 221.532 232.400,219.995 232.235,219.663 231.903 C 219.268 231.508,219.090 231.528,218.789 232.003 C 218.511 232.444,218.411 232.462,218.406 232.073 C 218.401 231.665,217.550 231.574,214.650 231.673 C 211.773 231.770,210.945 231.684,211.093 231.300 C 211.376 230.564,210.773 230.692,210.143 231.500 C 209.624 232.167,209.610 232.167,209.842 231.500 C 210.070 230.845,209.432 230.800,200.000 230.800 C 190.568 230.800,189.930 230.845,190.158 231.500 C 190.390 232.167,190.376 232.167,189.857 231.500 C 189.227 230.692,188.624 230.564,188.907 231.300 C 189.055 231.684,188.227 231.770,185.350 231.673 C 182.450 231.574,181.599 231.665,181.594 232.073 C 181.589 232.462,181.489 232.444,181.211 232.003 C 180.910 231.528,180.732 231.508,180.337 231.903 C 180.005 232.235,178.459 232.400,175.677 232.400 C 171.886 232.400,171.536 232.463,171.758 233.100 C 171.990 233.767,171.976 233.767,171.457 233.100 C 170.833 232.299,169.818 232.148,170.107 232.900 C 170.357 233.549,157.034 233.413,155.748 232.754 C 155.280 232.513,153.997 232.380,152.898 232.458 C 151.390 232.565,150.949 232.474,151.099 232.084 C 151.243 231.711,150.891 231.596,149.824 231.668 C 148.927 231.728,148.220 231.556,148.018 231.229 C 147.817 230.903,147.273 230.769,146.643 230.890 C 145.900 231.032,145.600 230.919,145.600 230.498 C 145.600 230.104,145.334 229.976,144.800 230.116 C 144.259 230.257,144.000 230.128,144.000 229.716 C 144.000 229.288,143.713 229.162,143.037 229.291 C 142.414 229.410,142.136 229.311,142.251 229.013 C 142.348 228.758,141.927 228.301,141.314 227.996 C 139.992 227.339,137.200 224.591,137.200 223.946 C 137.200 223.252,135.554 221.982,135.048 222.285 C 134.802 222.433,134.843 222.254,135.140 221.888 C 135.778 221.101,134.986 220.023,133.729 219.968 C 133.308 219.950,133.212 219.851,133.500 219.735 C 134.167 219.466,134.142 218.400,133.469 218.400 C 133.107 218.400,132.994 218.019,133.115 217.200 C 133.220 216.480,133.113 216.000,132.845 216.000 C 132.600 216.000,132.400 215.640,132.400 215.200 C 132.400 214.760,132.175 214.397,131.900 214.394 C 131.553 214.390,131.576 214.277,131.974 214.024 C 132.409 213.749,132.439 213.529,132.097 213.117 C 131.411 212.290,131.239 201.638,131.916 201.899 C 132.291 202.044,132.404 201.684,132.329 200.578 C 132.267 199.659,132.419 198.994,132.713 198.896 C 133.354 198.682,133.343 197.602,132.700 197.594 C 132.338 197.589,132.352 197.491,132.751 197.239 C 133.054 197.047,133.180 196.691,133.030 196.449 C 132.859 196.173,132.989 196.098,133.379 196.247 C 133.823 196.417,134.000 196.238,134.000 195.619 C 134.000 195.057,133.824 194.842,133.500 195.007 C 133.225 195.147,133.426 194.886,133.947 194.428 C 134.741 193.730,134.811 193.495,134.379 192.975 C 134.096 192.634,134.030 192.386,134.232 192.425 C 135.161 192.601,135.600 192.337,135.600 191.600 C 135.600 191.160,135.780 190.800,136.000 190.800 C 136.220 190.800,136.400 190.455,136.400 190.033 C 136.400 189.612,136.625 189.173,136.900 189.058 C 137.253 188.911,137.165 188.655,136.600 188.184 C 135.809 187.525,135.810 187.520,136.700 187.785 C 137.408 187.997,137.676 187.853,137.958 187.110 C 138.155 186.592,138.588 185.942,138.919 185.667 C 139.250 185.392,139.633 184.725,139.768 184.184 C 139.904 183.643,140.192 183.200,140.408 183.200 C 140.623 183.200,140.800 182.919,140.800 182.576 C 140.800 182.233,140.650 182.045,140.467 182.159 C 140.283 182.272,140.133 182.100,140.133 181.777 C 140.133 181.372,140.381 181.267,140.927 181.440 C 141.536 181.633,141.665 181.546,141.481 181.067 C 141.314 180.633,141.419 180.509,141.820 180.663 C 142.139 180.786,142.400 180.686,142.400 180.443 C 142.400 180.199,142.226 180.000,142.013 180.000 C 141.799 180.000,141.724 179.741,141.846 179.425 C 141.973 179.093,142.334 178.953,142.703 179.095 C 143.181 179.278,143.273 179.167,143.074 178.649 C 142.915 178.235,142.969 178.057,143.208 178.205 C 143.832 178.590,144.909 177.259,144.680 176.385 C 144.567 175.953,144.635 175.698,144.831 175.819 C 145.207 176.051,148.000 173.468,148.000 172.888 C 148.000 172.702,148.540 172.032,149.200 171.400 C 149.860 170.768,150.400 170.068,150.400 169.844 C 150.400 169.621,150.983 168.837,151.695 168.102 C 152.773 166.990,152.891 166.702,152.395 166.389 C 151.877 166.061,151.881 166.011,152.430 166.006 C 153.466 165.996,154.819 164.362,156.658 160.900 C 157.037 160.185,157.495 159.600,157.674 159.600 C 157.853 159.600,158.000 159.319,158.000 158.976 C 158.000 158.607,157.812 158.469,157.538 158.638 C 157.252 158.815,157.185 158.748,157.362 158.462 C 157.519 158.208,157.829 158.000,158.052 158.000 C 158.613 158.000,159.748 156.815,159.461 156.528 C 159.332 156.399,159.671 155.945,160.214 155.518 C 160.756 155.091,161.200 154.553,161.200 154.322 C 161.200 154.052,160.999 154.069,160.636 154.370 C 160.203 154.729,160.002 154.726,159.774 154.358 C 159.585 154.053,159.645 153.981,159.938 154.162 C 160.210 154.330,160.400 154.196,160.400 153.836 C 160.400 153.462,160.629 153.313,160.990 153.451 C 161.633 153.698,162.800 152.747,162.800 151.975 C 162.800 151.711,163.177 151.167,163.637 150.768 C 164.097 150.369,164.358 149.855,164.216 149.626 C 164.061 149.375,164.206 149.304,164.579 149.447 C 164.989 149.605,165.200 149.456,165.200 149.011 C 165.200 148.641,165.920 147.646,166.800 146.800 C 168.477 145.189,168.732 144.601,167.900 144.265 C 167.625 144.154,167.824 144.049,168.343 144.032 C 169.024 144.009,169.220 143.828,169.047 143.379 C 168.916 143.038,168.972 142.859,169.171 142.982 C 169.697 143.307,176.873 136.042,176.548 135.516 C 176.382 135.248,176.461 135.191,176.749 135.369 C 177.028 135.541,177.694 135.156,178.372 134.430 C 179.004 133.754,179.732 133.200,179.989 133.200 C 180.642 133.200,181.696 132.079,181.438 131.661 C 181.320 131.471,181.698 131.406,182.278 131.517 C 183.094 131.673,183.279 131.584,183.102 131.122 C 182.928 130.669,183.105 130.569,183.837 130.709 C 184.513 130.838,184.800 130.712,184.800 130.284 C 184.800 129.872,185.059 129.743,185.600 129.884 C 186.047 130.001,186.400 129.896,186.400 129.647 C 186.400 129.401,186.841 129.200,187.380 129.200 C 187.919 129.200,188.504 128.959,188.680 128.664 C 188.856 128.369,189.405 128.026,189.901 127.901 C 190.396 127.777,190.700 127.838,190.577 128.037 C 190.454 128.237,190.618 128.400,190.943 128.400 C 191.268 128.400,191.595 128.214,191.671 127.986 C 191.747 127.758,193.021 127.563,194.505 127.551 C 195.987 127.540,197.200 127.366,197.200 127.165 C 197.200 126.964,198.460 126.800,200.000 126.800 C 201.540 126.800,202.800 126.964,202.800 127.165 " stroke="none" fill="#fcfcfc" fill-rule="evenodd"></path><path id="path1" d="M156.800 0.400 C 156.800 0.631,158.067 0.800,159.800 0.800 C 161.533 0.800,162.800 0.631,162.800 0.400 C 162.800 0.169,161.533 0.000,159.800 0.000 C 158.067 0.000,156.800 0.169,156.800 0.400 M237.200 0.400 C 237.200 0.631,238.467 0.800,240.200 0.800 C 241.933 0.800,243.200 0.631,243.200 0.400 C 243.200 0.169,241.933 0.000,240.200 0.000 C 238.467 0.000,237.200 0.169,237.200 0.400 M177.120 55.680 C 177.384 55.944,177.600 56.484,177.600 56.880 C 177.600 57.276,177.780 57.600,178.000 57.600 C 178.495 57.600,178.495 57.503,178.010 56.226 C 177.795 55.662,177.399 55.200,177.130 55.200 C 176.749 55.200,176.747 55.307,177.120 55.680 M145.309 69.600 C 145.309 70.590,145.387 70.995,145.482 70.500 C 145.578 70.005,145.578 69.195,145.482 68.700 C 145.387 68.205,145.309 68.610,145.309 69.600 M164.300 92.293 C 165.235 92.377,166.765 92.377,167.700 92.293 C 168.635 92.209,167.870 92.140,166.000 92.140 C 164.130 92.140,163.365 92.209,164.300 92.293 M85.331 113.000 C 85.333 114.540,85.405 115.121,85.492 114.291 C 85.579 113.461,85.577 112.201,85.489 111.491 C 85.400 110.781,85.329 111.460,85.331 113.000 M314.493 118.000 C 314.493 118.770,314.575 119.085,314.676 118.700 C 314.776 118.315,314.776 117.685,314.676 117.300 C 314.575 116.915,314.493 117.230,314.493 118.000 M124.867 128.276 C 124.830 130.518,124.935 132.437,125.100 132.540 C 125.265 132.642,125.351 131.438,125.291 129.863 C 125.094 124.718,124.936 124.124,124.867 128.276 M38.846 129.100 C 38.797 130.057,39.363 130.307,39.838 129.538 C 40.008 129.264,39.949 129.185,39.692 129.343 C 39.455 129.490,39.178 129.293,39.077 128.905 C 38.937 128.368,38.882 128.415,38.846 129.100 M360.846 128.924 C 360.817 129.380,360.615 129.543,360.300 129.365 C 359.903 129.141,359.902 129.192,360.293 129.615 C 360.907 130.276,361.334 129.906,361.082 128.931 C 360.902 128.234,360.891 128.234,360.846 128.924 M160.400 153.824 C 160.400 154.193,160.212 154.331,159.938 154.162 C 159.645 153.981,159.585 154.053,159.774 154.358 C 160.000 154.724,160.205 154.728,160.631 154.374 C 160.939 154.118,161.093 153.750,160.972 153.555 C 160.639 153.016,160.400 153.129,160.400 153.824 M239.095 153.455 C 238.938 153.705,239.061 154.118,239.369 154.374 C 239.795 154.728,240.000 154.724,240.226 154.358 C 240.407 154.065,240.355 153.981,240.092 154.143 C 239.855 154.290,239.598 154.093,239.521 153.705 C 239.430 153.244,239.282 153.157,239.095 153.455 M74.101 225.400 C 74.105 226.280,74.187 226.593,74.283 226.095 C 74.379 225.598,74.375 224.878,74.275 224.495 C 74.175 224.113,74.096 224.520,74.101 225.400 M325.701 225.400 C 325.705 226.280,325.787 226.593,325.883 226.095 C 325.979 225.598,325.975 224.878,325.875 224.495 C 325.775 224.113,325.696 224.520,325.701 225.400 M74.928 231.600 C 74.928 233.030,75.001 233.615,75.089 232.900 C 75.178 232.185,75.178 231.015,75.089 230.300 C 75.001 229.585,74.928 230.170,74.928 231.600 M324.928 231.600 C 324.928 233.030,325.001 233.615,325.089 232.900 C 325.178 232.185,325.178 231.015,325.089 230.300 C 325.001 229.585,324.928 230.170,324.928 231.600 " stroke="none" fill="#f4f4f4" fill-rule="evenodd"></path><path id="path2" d="" stroke="none" fill="#fc100f8" fill-rule="evenodd"></path><path id="path3" d="" stroke="none" fill="#fc100f8" fill-rule="evenodd"></path><path id="path4" d="" stroke="none" fill="#fc100f8" fill-rule="evenodd"></path></g></svg>